<?xml version="1.0" encoding="utf-8"?>
<!-- Generator: Adobe Illustrator 14.0.0, SVG Export Plug-In  -->
<!DOCTYPE svg PUBLIC "-//W3C//DTD SVG 1.1//EN" "http://www.w3.org/Graphics/SVG/1.1/DTD/svg11.dtd" [
	<!ENTITY ns_flows "http://ns.adobe.com/Flows/1.0/">
]>
<svg version="1.1"
	 xmlns="http://www.w3.org/2000/svg" xmlns:xlink="http://www.w3.org/1999/xlink" xmlns:a="http://ns.adobe.com/AdobeSVGViewerExtensions/3.0/"
	 x="0px" y="0px" width="50px" height="39px" viewBox="1 -1.006 50 39" enable-background="new 1 -1.006 50 39"
	 xml:space="preserve">
<defs>
</defs>
<rect x="20.551" y="6.609" fill="#FFFFFF" width="23.167" height="28.797"/>
<path fill="#0578A6" d="M38.169,35.465h-17.69c-0.322,0-0.589-0.267-0.589-0.59V7.2c0-0.322,0.267-0.589,0.589-0.591h5.652
	c-0.162,0.001-0.294,0.135-0.294,0.297v1.472V8.91v0.812c0,0.162,0.133,0.295,0.294,0.295h11.344c0.162,0,0.295-0.133,0.295-0.295
	V8.911V8.377V6.906c0-0.162-0.134-0.296-0.295-0.297h5.652c0.322,0.002,0.589,0.269,0.589,0.591v14.553l-0.499,0.888l-2.452,4.234
	V10.757h-2.511h-0.45H25.803h-0.451h-2.509v21.881H37.7l-0.106,2.806L38.169,35.465z M38.933,16.519H24.675v0.223h14.257V16.519z
	 M38.933,20.956H24.675v0.223h14.257V20.956z M38.933,25.431H24.675v0.223h14.257V25.431z M24.675,30.148H38.87l0.063-0.108v-0.114
	H24.675V30.148z M26.51,16.071c0.003,0,0.005,0,0.008,0c0.084-0.003,0.161-0.05,0.201-0.123l1.544-2.77
	c0.03-0.052,0.034-0.111,0.022-0.166c-0.014-0.064-0.053-0.124-0.116-0.159c-0.115-0.064-0.26-0.022-0.326,0.093l-0.037,0.066
	l-1.315,2.357l-1.008-1.533c-0.073-0.11-0.222-0.142-0.333-0.069c-0.11,0.072-0.141,0.222-0.068,0.332l1.225,1.864
	C26.354,16.031,26.429,16.071,26.51,16.071z M26.51,20.561c0.003,0,0.005,0,0.008,0c0.084-0.003,0.161-0.05,0.201-0.122l1.544-2.77
	c0.064-0.115,0.022-0.262-0.093-0.326c-0.115-0.064-0.26-0.023-0.326,0.092l-1.352,2.425l-1.008-1.534
	c-0.073-0.11-0.222-0.141-0.333-0.068c-0.11,0.074-0.141,0.221-0.068,0.332l1.225,1.864C26.354,20.521,26.429,20.561,26.51,20.561z
	 M26.51,25.051c0.003,0,0.005,0,0.008,0c0.084-0.002,0.161-0.049,0.201-0.123l1.544-2.769c0.064-0.115,0.022-0.261-0.093-0.326
	c-0.115-0.063-0.26-0.022-0.326,0.093l-1.352,2.424l-1.008-1.533c-0.073-0.111-0.222-0.142-0.333-0.068
	c-0.11,0.072-0.141,0.222-0.068,0.331l1.225,1.864C26.354,25.011,26.429,25.051,26.51,25.051z M26.51,29.542
	c0.003,0,0.005,0,0.008,0c0.084-0.004,0.161-0.051,0.201-0.124l1.544-2.768c0.064-0.116,0.022-0.263-0.093-0.327
	c-0.115-0.064-0.26-0.022-0.326,0.093l-1.352,2.425l-1.008-1.534c-0.073-0.11-0.222-0.141-0.333-0.068
	c-0.11,0.072-0.141,0.221-0.068,0.331l1.225,1.863C26.354,29.502,26.429,29.542,26.51,29.542z M50.609,18.774l-3.074-1.78
	c-0.149-0.087-0.342-0.035-0.428,0.113l-1.671,2.885l3.617,2.095l-0.37,0.638l-0.102,0.177l-0.204,0.351l-1.039-0.595l-1.488-0.852
	l-1.113-0.639l-1.021,1.764l-2.951,5.096l-2.476,4.273l0.563,0.327l0.021,0.012l0,0l3.058,1.772l-1.723,1.055h2.918
	c0.322,0,0.589-0.267,0.589-0.59v-3.549l4.942-8.53c0.013-0.022,0.017-0.046,0.023-0.069l2.041-3.524
	C50.811,19.052,50.758,18.86,50.609,18.774z M45.017,20.687l-0.27,0.466l0.29-0.489C45.031,20.672,45.022,20.678,45.017,20.687z
	 M38.747,35.45l-0.54-0.313l-0.009,0.328v0.002l-0.028,0.955c-0.009,0.174,0.101,0.238,0.246,0.143l1.098-0.673l-0.738-0.427
	L38.747,35.45z"/>
<linearGradient id="SVGID_1_" gradientUnits="userSpaceOnUse" x1="-67.7168" y1="792.2476" x2="-49.7114" y2="792.2476" gradientTransform="matrix(-0.3428 0.9394 -0.9394 -0.3428 737.9946 338.2211)">
	<stop  offset="0" style="stop-color:#969696"/>
	<stop  offset="1" style="stop-color:#B5B6B6"/>
</linearGradient>
<path fill="url(#SVGID_1_)" d="M12.41,19.738c0,0,1.415-4.632,1.831-5.771c0.416-1.139,1.41-2.162,1.41-2.162
	s1.242-1.208,2.804-2.574c1.561-1.365,1.348-2.876,1.348-2.876c-0.389-1.946-2.016-3.062-2.129-3.073
	c-0.113-0.012-0.139,0.092-0.139,0.092s0.144,1.554,0.218,2.364c0.072,0.81-0.599,0.854-0.599,0.854l-5.904,0.319
	c-0.229,0.333,0.339,1.558,0.74,3.209c0.401,1.652-0.106,2.781-0.106,2.781L9.457,19.45L12.41,19.738z M13.32,8.575l2.308-0.164
	l0.13,1.862l-2.307,0.163L13.32,8.575z"/>
<linearGradient id="SVGID_2_" gradientUnits="userSpaceOnUse" x1="-66.6523" y1="793.7524" x2="-62.6523" y2="793.7524" gradientTransform="matrix(-0.3428 0.9394 -0.9394 -0.3428 737.9946 338.2211)">
	<stop  offset="0" style="stop-color:#B2B4B9"/>
	<stop  offset="1" style="stop-color:#F2F1F0"/>
</linearGradient>
<path fill="url(#SVGID_2_)" d="M14.81,3.465c0,0-1.734,1.397-2.168,3.372l2.77-0.15c0,0-0.258-0.071-0.283-0.485
	c-0.024-0.416-0.113-2.546-0.113-2.546S15.024,3.275,14.81,3.465z"/>
<linearGradient id="SVGID_3_" gradientUnits="userSpaceOnUse" x1="-67.7168" y1="792.3071" x2="-60.9746" y2="792.3071" gradientTransform="matrix(-0.3428 0.9394 -0.9394 -0.3428 737.9946 338.2211)">
	<stop  offset="0" style="stop-color:#B2B4B9"/>
	<stop  offset="1" style="stop-color:#F2F1F0"/>
</linearGradient>
<path fill="url(#SVGID_3_)" d="M11.786,8.31l7.388-0.432c0.855-0.829,0.527-1.935,0.458-2.138c-0.561-1.564-1.858-2.448-1.959-2.458
	c-0.113-0.012-0.139,0.092-0.139,0.092s0.144,1.554,0.218,2.364c0.072,0.81-0.599,0.854-0.599,0.854l-5.904,0.319
	C11.372,7.548,11.786,8.31,11.786,8.31z"/>
<linearGradient id="SVGID_4_" gradientUnits="userSpaceOnUse" x1="-67.2554" y1="789.9995" x2="-65.207" y2="789.9995" gradientTransform="matrix(-0.3428 0.9394 -0.9394 -0.3428 737.9946 338.2211)">
	<stop  offset="0" style="stop-color:#414141"/>
	<stop  offset="0.501" style="stop-color:#444444"/>
	<stop  offset="0.897" style="stop-color:#4E4E4E"/>
	<stop  offset="1" style="stop-color:#525252"/>
</linearGradient>
<path fill="url(#SVGID_4_)" d="M18.093,6.106l1.291-0.074c-0.02-0.083-0.038-0.143-0.048-0.171c-0.334-0.94-0.975-1.632-1.398-1.992
	c0.05,0.525,0.124,1.335,0.169,1.847C18.12,5.857,18.114,5.988,18.093,6.106z"/>
<linearGradient id="SVGID_5_" gradientUnits="userSpaceOnUse" x1="-66.6523" y1="794.0269" x2="-62.6523" y2="794.0269" gradientTransform="matrix(-0.3428 0.9394 -0.9394 -0.3428 737.9946 338.2211)">
	<stop  offset="0" style="stop-color:#B2B4B9"/>
	<stop  offset="1" style="stop-color:#F2F1F0"/>
</linearGradient>
<path fill="url(#SVGID_5_)" d="M12.642,6.836l1.334-0.072c0,0,0.719-0.414,0.921-0.54C15.1,6.1,15.112,5.854,15.112,5.854
	c-0.035-0.738-0.096-2.198-0.096-2.198s0.008-0.38-0.206-0.19C14.81,3.465,13.076,4.862,12.642,6.836z"/>
<linearGradient id="SVGID_6_" gradientUnits="userSpaceOnUse" x1="-65.9966" y1="794.0122" x2="-63.1455" y2="794.0122" gradientTransform="matrix(-0.3428 0.9394 -0.9394 -0.3428 737.9946 338.2211)">
	<stop  offset="0" style="stop-color:#414141"/>
	<stop  offset="0.501" style="stop-color:#444444"/>
	<stop  offset="0.897" style="stop-color:#4E4E4E"/>
	<stop  offset="1" style="stop-color:#525252"/>
</linearGradient>
<path fill="url(#SVGID_6_)" d="M13.104,6.48l0.788-0.043c0.013-0.008,0.028-0.016,0.045-0.026c0.071-0.041,0.167-0.096,0.269-0.155
	c0.204-0.119,0.435-0.253,0.528-0.312c0.016-0.01,0.031-0.029,0.043-0.061c0.005-0.013,0.008-0.027,0.009-0.036
	c-0.024-0.514-0.059-1.345-0.079-1.816c-0.115,0.113-0.253,0.257-0.4,0.426c-0.405,0.466-0.878,1.13-1.159,1.9
	C13.133,6.397,13.117,6.438,13.104,6.48z"/>
<linearGradient id="SVGID_7_" gradientUnits="userSpaceOnUse" x1="-61.7939" y1="792.3169" x2="-59.853" y2="792.3169" gradientTransform="matrix(-0.3428 0.9394 -0.9394 -0.3428 737.9946 338.2211)">
	<stop  offset="0" style="stop-color:#414141"/>
	<stop  offset="0.501" style="stop-color:#444444"/>
	<stop  offset="0.897" style="stop-color:#4E4E4E"/>
	<stop  offset="1" style="stop-color:#525252"/>
</linearGradient>
<polygon fill="url(#SVGID_7_)" points="15.658,8.851 13.351,9.018 13.428,10.103 15.734,9.936 "/>
<linearGradient id="SVGID_8_" gradientUnits="userSpaceOnUse" x1="-61.8789" y1="792.3286" x2="-59.8359" y2="792.3286" gradientTransform="matrix(-0.3428 0.9394 -0.9394 -0.3428 737.9946 338.2211)">
	<stop  offset="0" style="stop-color:#414141"/>
	<stop  offset="0.501" style="stop-color:#444444"/>
	<stop  offset="0.897" style="stop-color:#4E4E4E"/>
	<stop  offset="1" style="stop-color:#525252"/>
</linearGradient>
<path fill="url(#SVGID_8_)" d="M15.728,10.103c0.006,0.01,0.013,0.021,0.02,0.031l-0.055-0.797l-0.31-0.631
	c-0.038-0.076-0.129-0.106-0.205-0.07c-0.075,0.038-0.107,0.129-0.07,0.206L15.728,10.103z M15.109,10.146
	c0.036,0.076,0.127,0.108,0.203,0.07c0.077-0.037,0.107-0.128,0.07-0.204l-0.62-1.263c-0.038-0.076-0.128-0.106-0.205-0.07
	c-0.076,0.037-0.107,0.129-0.071,0.205L15.109,10.146z M14.487,10.192c0.038,0.076,0.13,0.107,0.205,0.069
	c0.076-0.038,0.107-0.129,0.07-0.205l-0.621-1.262c-0.036-0.077-0.127-0.109-0.204-0.071c-0.076,0.037-0.107,0.128-0.07,0.205
	L14.487,10.192z M14.071,10.307c0.077-0.038,0.107-0.129,0.071-0.205l-0.62-1.264c-0.035-0.07-0.116-0.102-0.188-0.076l0.032,0.45
	l0.502,1.023C13.905,10.313,13.997,10.343,14.071,10.307z"/>
<linearGradient id="SVGID_9_" gradientUnits="userSpaceOnUse" x1="14.1118" y1="26.334" x2="9.418" y2="26.334" gradientTransform="matrix(0.9394 0.3428 -0.3428 0.9394 6.0258 -1.5713)">
	<stop  offset="0" style="stop-color:#ECB11F"/>
	<stop  offset="1" style="stop-color:#FFC316"/>
</linearGradient>
<path fill="url(#SVGID_9_)" d="M7.641,34.835c0.014-0.04,0.027-0.08,0.039-0.12l5.045-15.518c0,0,0.042-0.263-0.363-0.254
	c-0.403,0.008-2.604,0.133-2.604,0.133s-0.276,0.004-0.422,0.404C9.2,19.854,4.553,31.91,3.985,33.381
	c-0.015,0.035-0.028,0.069-0.042,0.105c-0.004,0.011-0.008,0.022-0.011,0.032c-0.002,0.006-0.003,0.01-0.003,0.01l0,0
	c-0.343,1.009,0.181,2.114,1.188,2.481C6.139,36.382,7.268,35.855,7.641,34.835z M5.01,34.013c0.142-0.389,0.573-0.589,0.963-0.447
	s0.589,0.573,0.447,0.962c-0.142,0.39-0.572,0.591-0.962,0.448C5.068,34.833,4.868,34.402,5.01,34.013z"/>
<linearGradient id="SVGID_10_" gradientUnits="userSpaceOnUse" x1="13.8472" y1="26.335" x2="9.7649" y2="26.335" gradientTransform="matrix(0.9394 0.3428 -0.3428 0.9394 6.0258 -1.5713)">
	<stop  offset="0" style="stop-color:#F3B91A"/>
	<stop  offset="0.3791" style="stop-color:#FEE089"/>
	<stop  offset="1" style="stop-color:#FFC316"/>
</linearGradient>
<path fill="url(#SVGID_10_)" d="M12.375,19.201c-0.191,0.004-0.846,0.038-1.445,0.07c-0.583,0.031-1.117,0.063-1.147,0.063h0
	c0,0-0.002,0-0.005,0.001c-0.006,0.001-0.02,0.005-0.039,0.016c-0.037,0.023-0.097,0.067-0.154,0.218
	C9.443,19.954,4.799,32.001,4.23,33.475l-0.001,0.006l-0.001,0.003c-0.014,0.029-0.024,0.057-0.034,0.084L4.186,33.59
	c-0.001,0.002-0.002,0.004-0.002,0.007l-0.005,0.015c-0.298,0.878,0.157,1.838,1.033,2.158c0.889,0.323,1.869-0.134,2.194-1.021l0,0
	c0.012-0.033,0.022-0.067,0.037-0.111l5.017-15.433C12.439,19.203,12.413,19.2,12.375,19.201z M5.375,35.219
	c-0.522-0.191-0.791-0.769-0.6-1.292c0.191-0.523,0.768-0.792,1.291-0.601c0.523,0.191,0.792,0.769,0.602,1.292
	C6.477,35.14,5.898,35.41,5.375,35.219z"/>
<linearGradient id="SVGID_11_" gradientUnits="userSpaceOnUse" x1="-35.6411" y1="792.1099" x2="-33.3711" y2="792.1099" gradientTransform="matrix(-0.3428 0.9394 -0.9394 -0.3428 737.9946 338.2211)">
	<stop  offset="0" style="stop-color:#9B9C9C"/>
	<stop  offset="1" style="stop-color:#242424"/>
</linearGradient>
<path fill="url(#SVGID_11_)" d="M6.781,34.659c0.215-0.588-0.088-1.24-0.677-1.455c-0.59-0.215-1.241,0.088-1.456,0.677
	s0.088,1.241,0.677,1.456C5.915,35.552,6.566,35.248,6.781,34.659z M5.01,34.013c0.142-0.389,0.573-0.589,0.963-0.447
	s0.589,0.573,0.447,0.962c-0.142,0.39-0.572,0.591-0.962,0.448C5.068,34.833,4.868,34.402,5.01,34.013z"/>
<linearGradient id="SVGID_12_" gradientUnits="userSpaceOnUse" x1="13.5781" y1="24.6475" x2="12.8849" y2="24.6475" gradientTransform="matrix(0.9394 0.3428 -0.3428 0.9394 6.0258 -1.5713)">
	<stop  offset="0" style="stop-color:#9B9C9C"/>
	<stop  offset="1" style="stop-color:#242424"/>
</linearGradient>
<path fill="url(#SVGID_12_)" d="M10.195,22.049c-0.609,1.667-3.202,8.776-3.202,8.776s-0.348,1.453,1.758,0.596l3.562-10.956
	C11.703,20.555,10.621,20.881,10.195,22.049z"/>
<linearGradient id="SVGID_13_" gradientUnits="userSpaceOnUse" x1="-63.9131" y1="791.9106" x2="-50.6992" y2="791.9106" gradientTransform="matrix(-0.3428 0.9394 -0.9394 -0.3428 737.9946 338.2211)">
	<stop  offset="0" style="stop-color:#B2B4B9"/>
	<stop  offset="1" style="stop-color:#F2F1F0"/>
</linearGradient>
<path fill="url(#SVGID_13_)" d="M10.721,18.736c0.813-0.05,1.365-0.083,1.365-0.083s0.445-0.021,0.688-0.685
	c0.243-0.666,1.238-4.284,1.891-5.237c0.653-0.953,2.255-2.385,2.814-2.883c0.559-0.5,1.479-1.375,1.696-1.97L11.786,8.31
	c0,0,0.919,2.616,0.352,4.17c-0.567,1.556-2.125,5.854-2.125,5.854S9.908,18.786,10.721,18.736z M13.32,8.575l2.308-0.164
	l0.13,1.862l-2.307,0.163L13.32,8.575z"/>
<linearGradient id="SVGID_14_" gradientUnits="userSpaceOnUse" x1="-135.9082" y1="-19.3809" x2="-137.8855" y2="-19.3809" gradientTransform="matrix(-0.9666 0.2562 -0.2562 -0.9666 -129.1664 27.0768)">
	<stop  offset="0" style="stop-color:#88888C"/>
	<stop  offset="0.7582" style="stop-color:#F2F1F0"/>
	<stop  offset="1" style="stop-color:#A9A8A8"/>
</linearGradient>
<polygon fill="url(#SVGID_14_)" points="10.757,16.589 7.513,4.352 5.598,4.859 8.842,17.097 "/>
<linearGradient id="SVGID_15_" gradientUnits="userSpaceOnUse" x1="-138.0308" y1="-13.4155" x2="-136.5525" y2="-13.4155" gradientTransform="matrix(-0.9666 0.2562 -0.2562 -0.9666 -129.1664 27.0768)">
	<stop  offset="0" style="stop-color:#9B9C9C"/>
	<stop  offset="1" style="stop-color:#242424"/>
</linearGradient>
<polygon fill="url(#SVGID_15_)" points="7.872,5.066 7.657,4.258 5.406,4.855 5.62,5.662 "/>
<linearGradient id="SVGID_16_" gradientUnits="userSpaceOnUse" x1="33.73" y1="721.2495" x2="37.1401" y2="721.2495" gradientTransform="matrix(0.2562 0.9666 0.9666 -0.2562 -693.982 152.209)">
	<stop  offset="0" style="stop-color:#B2B4B9"/>
	<stop  offset="1" style="stop-color:#F2F1F0"/>
</linearGradient>
<path fill="url(#SVGID_16_)" d="M11.799,1.797l0.052-1.777c0.397-0.105,0.519,0.241,0.519,0.241l0.685,2.587
	c0,0,0.067,0.362-0.331,0.467L11.799,1.797z"/>
<linearGradient id="SVGID_17_" gradientUnits="userSpaceOnUse" x1="-142.7407" y1="-13.5405" x2="-142.7407" y2="-9.8529" gradientTransform="matrix(-0.9666 0.2562 -0.2562 -0.9666 -129.1664 27.0768)">
	<stop  offset="0" style="stop-color:#88888C"/>
	<stop  offset="0.7582" style="stop-color:#F2F1F0"/>
	<stop  offset="1" style="stop-color:#A9A8A8"/>
</linearGradient>
<path fill="url(#SVGID_17_)" d="M12.724,3.316c0.149-0.04,0.237-0.192,0.198-0.341l-0.73-2.756c-0.04-0.149-0.192-0.238-0.341-0.198
	l-0.976,0.259c-0.149,0.04-0.238,0.192-0.199,0.341l0.73,2.756c0.04,0.149,0.192,0.238,0.342,0.199L12.724,3.316z"/>
<linearGradient id="SVGID_18_" gradientUnits="userSpaceOnUse" x1="33.7095" y1="718.1108" x2="34.8433" y2="718.1108" gradientTransform="matrix(0.2562 0.9666 0.9666 -0.2562 -693.982 152.209)">
	<stop  offset="0" style="stop-color:#B2B4B9"/>
	<stop  offset="1" style="stop-color:#F2F1F0"/>
</linearGradient>
<path fill="url(#SVGID_18_)" d="M6.812,1.369c0,0,0.347-0.159,0.464-0.138c0.118,0.021,1.195,0.4,2.137,0.15
	c0,0,0.717-0.114,1.292-0.973c0,0,0.117,0.122,0.263,0.672c0,0-1.125,0.761-2.495,0.945C7.103,2.21,6.812,1.369,6.812,1.369z"/>
<linearGradient id="SVGID_19_" gradientUnits="userSpaceOnUse" x1="34.1763" y1="718.5337" x2="35.4351" y2="718.5337" gradientTransform="matrix(0.2562 0.9666 0.9666 -0.2562 -693.982 152.209)">
	<stop  offset="0" style="stop-color:#B2B4B9"/>
	<stop  offset="1" style="stop-color:#F2F1F0"/>
</linearGradient>
<path fill="url(#SVGID_19_)" d="M7.698,1.582c0,0,1.428,0.621,3.225-0.661l0.318,1.024L8.766,2.601L7.698,1.582z"/>
<linearGradient id="SVGID_20_" gradientUnits="userSpaceOnUse" x1="36.0259" y1="718.1108" x2="37.1602" y2="718.1108" gradientTransform="matrix(0.2562 0.9666 0.9666 -0.2562 -693.982 152.209)">
	<stop  offset="0" style="stop-color:#B2B4B9"/>
	<stop  offset="1" style="stop-color:#F2F1F0"/>
</linearGradient>
<path fill="url(#SVGID_20_)" d="M7.679,4.639c0,0,0.38-0.033,0.471-0.109C8.242,4.452,8.991,3.59,9.932,3.34
	c0,0,0.679-0.255,1.604,0.205c0,0,0.042-0.163-0.104-0.714c0,0-1.355-0.104-2.636,0.415C7.515,3.765,7.679,4.639,7.679,4.639z"/>
<linearGradient id="SVGID_21_" gradientUnits="userSpaceOnUse" x1="35.4346" y1="718.5337" x2="36.6934" y2="718.5337" gradientTransform="matrix(0.2562 0.9666 0.9666 -0.2562 -693.982 152.209)">
	<stop  offset="0" style="stop-color:#B2B4B9"/>
	<stop  offset="1" style="stop-color:#F2F1F0"/>
</linearGradient>
<path fill="url(#SVGID_21_)" d="M8.343,4.015c0,0,0.932-1.247,3.129-1.023l-0.23-1.047L8.766,2.601L8.343,4.015z"/>
<linearGradient id="SVGID_22_" gradientUnits="userSpaceOnUse" x1="35.0527" y1="712.5786" x2="39.0889" y2="712.5786" gradientTransform="matrix(0.2562 0.9666 0.9666 -0.2562 -693.982 152.209)">
	<stop  offset="0" style="stop-color:#B2B4B9"/>
	<stop  offset="1" style="stop-color:#F2F1F0"/>
</linearGradient>
<path fill="url(#SVGID_22_)" d="M0.14,8.667l0.08-0.021c0,0,1.617-3.417,3.538-4.28c0,0,0.607-0.225,1.274,0.346
	c0.668,0.57,1.131,0.533,1.711,0.379c0.582-0.154,1.374-0.542,1.374-0.542l0.225-0.534c0,0,0.163-0.595,0.351-0.802l-1.72-0.135
	L4,3.469c0,0-1.57,1.043-1.584,1.068C2.402,4.561,1.531,5.966,1.531,5.966L0.667,7.254L0.146,8.412L0.14,8.667z"/>
<linearGradient id="SVGID_23_" gradientUnits="userSpaceOnUse" x1="37.1948" y1="717.0571" x2="36.1518" y2="710.495" gradientTransform="matrix(0.2562 0.9666 0.9666 -0.2562 -693.982 152.209)">
	<stop  offset="0" style="stop-color:#BDBDBD"/>
	<stop  offset="0.7582" style="stop-color:#F2F1F0"/>
	<stop  offset="1" style="stop-color:#A9A8A8"/>
</linearGradient>
<path fill="url(#SVGID_23_)" d="M0,8.63c0,0,0.765-3.786,3.115-5.549C5.466,1.317,7.08,1.265,7.08,1.265s0.745,0.403,1.233,0.578
	c0,0,0.486,0.169,0.63,0.711c0,0,0.052,0.293-0.341,0.778C8.208,3.817,8.049,4.26,7.029,4.459c-1.02,0.2-1.577,0.048-2.274-0.181
	C4.058,4.05,4.039,3.979,3.47,4.303C2.903,4.627,1.546,5.765,0.14,8.667L0,8.63z"/>
<linearGradient id="SVGID_24_" gradientUnits="userSpaceOnUse" x1="-136.2476" y1="-15.3921" x2="-134.6643" y2="-12.0379" gradientTransform="matrix(-0.9666 0.2562 -0.2562 -0.9666 -129.1664 27.0768)">
	<stop  offset="0" style="stop-color:#B2B4B9"/>
	<stop  offset="1" style="stop-color:#F2F1F0"/>
</linearGradient>
<path fill="url(#SVGID_24_)" d="M3.845,3.909c0.152-0.042,0.305-0.032,0.45,0.007c0.147,0.038,0.304,0.097,0.534,0.173
	c0.696,0.225,1.179,0.363,2.164,0.174c0.075-0.014,0.144-0.031,0.209-0.048C7.954,4.006,8.039,3.7,8.434,3.213
	C8.72,2.857,8.728,2.65,8.728,2.611C8.626,2.252,8.321,2.104,8.253,2.076c-0.008-0.003-0.008-0.002-0.01-0.003
	C7.812,1.916,7.223,1.61,7.038,1.511C7.011,1.514,6.977,1.518,6.933,1.524C6.821,1.54,6.652,1.57,6.435,1.628
	c-0.663,0.176-1.785,0.604-3.18,1.65c-1.367,1.02-2.2,2.801-2.636,4.042c1.17-2.014,2.226-2.889,2.749-3.189
	C3.558,4.022,3.697,3.948,3.845,3.909z"/>
<linearGradient id="SVGID_25_" gradientUnits="userSpaceOnUse" x1="-138.48" y1="-35.2983" x2="-135.466" y2="-35.2983" gradientTransform="matrix(-0.9666 0.2562 -0.2562 -0.9666 -129.1664 27.0768)">
	<stop  offset="0" style="stop-color:#F3B91A"/>
	<stop  offset="0.3791" style="stop-color:#FEE089"/>
	<stop  offset="1" style="stop-color:#FFC316"/>
</linearGradient>
<path fill="url(#SVGID_25_)" d="M13.263,36.188c0,0-0.123,0.027-0.225-0.082c-0.104-0.108-0.151-0.126-0.203-0.439
	c-0.052-0.313-0.865-4.128-1.933-8.158c-1.068-4.03-2.325-8.573-2.61-10.49l0.168-0.254l1.042-0.276l0.162-0.161l0.221,0.06
	l1.042-0.276l0.272,0.137c0.702,1.807,1.86,6.376,2.929,10.406c1.068,4.029,2.252,7.747,2.362,8.044
	c0.109,0.297,0.077,0.337,0.042,0.481c-0.036,0.146-0.155,0.183-0.155,0.183c-0.984,0.36-1.526,0.526-1.526,0.526
	S14.295,36.014,13.263,36.188z"/>
<linearGradient id="SVGID_26_" gradientUnits="userSpaceOnUse" x1="48.6177" y1="714.9888" x2="49.0483" y2="714.9888" gradientTransform="matrix(0.2562 0.9666 0.9666 -0.2562 -693.982 152.209)">
	<stop  offset="0" style="stop-color:#414141"/>
	<stop  offset="0.501" style="stop-color:#444444"/>
	<stop  offset="0.897" style="stop-color:#4E4E4E"/>
	<stop  offset="1" style="stop-color:#525252"/>
</linearGradient>
<polygon fill="url(#SVGID_26_)" points="10.815,15.696 10.925,16.112 8.459,16.766 8.35,16.35 "/>
<linearGradient id="SVGID_27_" gradientUnits="userSpaceOnUse" x1="-135.3164" y1="-37.0195" x2="-136.0081" y2="-37.0195" gradientTransform="matrix(-0.9666 0.2562 -0.2562 -0.9666 -129.1664 27.0768)">
	<stop  offset="0" style="stop-color:#9B9C9C"/>
	<stop  offset="1" style="stop-color:#242424"/>
</linearGradient>
<path fill="url(#SVGID_27_)" d="M13.038,36.106c-0.104-0.108-0.151-0.126-0.203-0.439c-0.052-0.313-0.865-4.128-1.933-8.158
	c-0.671-2.534-1.417-5.271-1.95-7.43c0.555,0.442,1.533,1.656,2.767,4.992c1.696,4.587,1.907,9.224,3.349,10.748
	c-0.144,0.048-0.218,0.07-0.218,0.07s-0.553,0.124-1.585,0.298C13.263,36.188,13.14,36.215,13.038,36.106z"/>
<polygon fill="#FFFFFF" points="44.747,21.153 48.378,23.251 49.053,22.086 45.437,19.992 "/>
<polygon fill="#FFFFFF" points="38.775,35.465 40.209,35.465 39.514,35.892 "/>
</svg>
