<?xml version="1.0" encoding="utf-8"?>
<!-- Generator: Adobe Illustrator 14.0.0, SVG Export Plug-In  -->
<!DOCTYPE svg PUBLIC "-//W3C//DTD SVG 1.1//EN" "http://www.w3.org/Graphics/SVG/1.1/DTD/svg11.dtd" [
	<!ENTITY ns_flows "http://ns.adobe.com/Flows/1.0/">
]>
<svg version="1.1"
	 xmlns="http://www.w3.org/2000/svg" xmlns:xlink="http://www.w3.org/1999/xlink" xmlns:a="http://ns.adobe.com/AdobeSVGViewerExtensions/3.0/"
	 x="0px" y="0px" width="50px" height="39px" viewBox="-0.372 -0.288 50 39" enable-background="new -0.372 -0.288 50 39"
	 xml:space="preserve">
<defs>
</defs>
<path fill="#E12259" d="M41.908,16.082c0.885,0,1.736-0.134,2.542-0.372l-1.959,6.547c-0.241,0.807-1.129,1.468-1.977,1.468H19.333
	c-0.841,0-1.735-0.661-1.98-1.465l-4.96-16.217c-0.244-0.804,0.242-1.466,1.087-1.466h20.046C33.252,5.431,33.1,6.334,33.1,7.275
	C33.1,12.141,37.047,16.082,41.908,16.082z M42.434,25.55H17.6c-1.126,0.058-1.921-2.075-1.921-2.075L9.395,3.024
	C9.311,2.14,8.565,1.462,7.679,1.462H1.727C0.771,1.462,0,2.234,0,3.183c0,0.953,0.771,1.729,1.727,1.729h4.385l6.135,18.821
	c0.583,2.054,1.29,3.437,2.302,4.276l-0.74,1.512c-0.668,1.073-1.005,1.887-1.019,2.728c-0.005,0.423,0.116,0.87,0.357,1.213
	c0.374,0.527,0.894,0.744,1.287,0.846c0.405,0.098,0.754,0.104,1.002,0.106h1.195c0.039-0.859,0.331-1.644,0.8-2.299h-1.995
	c-0.118,0.005-0.239-0.006-0.332-0.019c0.058-0.236,0.238-0.723,0.68-1.412l0.037-0.052l0.836-1.707
	c0.296,0.044,0.606,0.071,0.941,0.071h24.833c0.949,0,1.724-0.768,1.724-1.72S43.383,25.55,42.434,25.55z M20.878,31.163
	c-1.902,0-3.442,1.543-3.442,3.444c0,1.898,1.54,3.438,3.442,3.438c1.901,0,3.44-1.54,3.44-3.438
	C24.318,32.706,22.779,31.163,20.878,31.163z M38.314,31.163c-1.902,0-3.439,1.543-3.439,3.444c0,1.898,1.537,3.438,3.439,3.438
	c1.9,0,3.441-1.54,3.441-3.438C41.755,32.706,40.215,31.163,38.314,31.163z M25.123,34.415h8.942
	c0.041-0.859,0.331-1.644,0.803-2.299H24.325C24.792,32.771,25.085,33.556,25.123,34.415z M43.006,32.115h-1.249
	c0.473,0.655,0.761,1.44,0.802,2.299h0.446c0.637,0,1.151-0.516,1.151-1.146C44.157,32.634,43.643,32.115,43.006,32.115z
	 M49.18,7.275c0,4.018-3.254,7.278-7.272,7.278c-4.019,0-7.275-3.261-7.275-7.278C34.633,3.257,37.889,0,41.908,0
	C45.926,0,49.18,3.257,49.18,7.275z M46.286,4.729l-0.859-0.912l-4.612,3.788l-2.109-1.555l-0.851,0.917l2.606,3.027l0.458,0.536
	l0.479-0.518L46.286,4.729z"/>
</svg>
