<?xml version="1.0" standalone="no"?>
<!DOCTYPE svg PUBLIC "-//W3C//DTD SVG 20010904//EN"
 "http://www.w3.org/TR/2001/REC-SVG-20010904/DTD/svg10.dtd">
<svg version="1.0" xmlns="http://www.w3.org/2000/svg"
 width="498.000000pt" height="375.000000pt" viewBox="0 0 498.000000 375.000000"
 preserveAspectRatio="xMidYMid meet">
<metadata>
Created by potrace 1.10, written by Peter Selinger 2001-2011
</metadata>
<g transform="translate(0.000000,375.000000) scale(0.100000,-0.100000)"
fill="#080808" stroke="none">
<path d="M1474 3231 c-92 -23 -153 -71 -201 -156 l-28 -50 -3 -504 -3 -504 27
-28 c27 -28 66 -37 90 -21 5 4 18 18 27 32 15 22 17 71 17 517 l0 493 28 31
c49 55 112 52 317 -16 22 -7 67 -21 100 -30 33 -9 78 -23 100 -30 47 -15 83
-25 185 -55 41 -11 83 -25 92 -31 10 -5 24 -9 33 -9 8 0 34 -6 57 -14 24 -7
77 -24 118 -36 41 -13 107 -33 145 -46 39 -12 86 -25 105 -29 19 -4 40 -11 45
-15 6 -4 26 -11 45 -15 40 -8 128 -34 150 -45 9 -4 31 -11 50 -15 19 -4 67
-17 105 -30 63 -21 124 -39 270 -82 155 -45 223 -71 250 -95 l30 -26 3 -714
c2 -664 1 -715 -15 -747 -26 -50 -76 -74 -138 -66 -27 3 -54 10 -60 14 -20 16
-149 51 -186 51 -59 0 -92 -46 -67 -97 14 -29 46 -43 214 -97 82 -26 160 -33
192 -17 9 4 35 17 57 27 55 26 102 70 128 118 l22 41 3 743 2 742 -24 53 c-41
89 -101 134 -226 171 -30 9 -86 26 -125 38 -38 11 -79 24 -90 28 -19 8 -43 14
-147 41 -24 6 -50 14 -59 19 -14 7 -92 31 -246 74 -23 6 -45 15 -49 19 -4 4
-16 7 -26 7 -10 0 -44 8 -75 19 -32 10 -85 26 -118 36 -33 10 -67 21 -75 25
-9 4 -31 11 -50 14 -19 4 -44 11 -55 16 -11 5 -54 18 -95 30 -96 28 -164 49
-218 66 -23 8 -49 14 -57 14 -9 0 -23 4 -33 9 -9 6 -51 20 -92 32 -41 11 -94
27 -118 35 -23 8 -49 14 -57 14 -9 0 -23 4 -33 9 -61 33 -187 55 -238 42z"/>
<path d="M2755 2303 c-30 -8 -72 -40 -101 -78 l-25 -34 0 -780 c0 -842 -2
-808 51 -861 25 -25 85 -50 120 -50 64 0 152 62 168 118 4 15 7 374 7 798 l0
771 -28 40 c-43 63 -121 93 -192 76z"/>
<path d="M2238 2107 c-9 -7 -26 -19 -37 -27 -12 -8 -30 -32 -41 -53 -19 -36
-20 -59 -20 -627 0 -583 0 -590 21 -630 68 -130 257 -122 314 13 13 31 15 117
15 618 0 571 0 583 -21 624 -30 61 -88 95 -159 95 -30 0 -62 -6 -72 -13z"/>
<path d="M1745 1911 c-92 -53 -90 -40 -93 -483 -2 -251 1 -401 8 -426 16 -61
69 -113 125 -123 88 -16 163 17 198 89 15 32 17 75 17 439 0 422 0 418 -45
471 -26 31 -91 62 -129 62 -17 0 -53 -13 -81 -29z"/>
<path d="M1265 1749 c-22 -11 -48 -31 -58 -42 -43 -53 -47 -80 -47 -309 0
-199 2 -222 20 -256 37 -70 76 -99 144 -108 34 -5 54 -1 89 16 93 47 107 91
107 351 0 260 -11 298 -105 348 -50 27 -99 27 -150 0z"/>
</g>
</svg>
