<?xml version="1.0" encoding="utf-8"?>
<!-- Generator: Adobe Illustrator 14.0.0, SVG Export Plug-In . SVG Version: 6.00 Build 43363)  -->
<!DOCTYPE svg PUBLIC "-//W3C//DTD SVG 1.1//EN" "http://www.w3.org/Graphics/SVG/1.1/DTD/svg11.dtd">
<svg version="1.1" id="Layer_1" xmlns="http://www.w3.org/2000/svg" xmlns:xlink="http://www.w3.org/1999/xlink" x="0px" y="0px"
	 width="64px" height="64px" viewBox="0 0 64 64" enable-background="new 0 0 64 64" xml:space="preserve">
<g>
	<path fill="#D6AC7A" d="M46.346,28.673c-0.328-0.094-1.355-0.466-1.357-1.292l-0.007-2.42l-8.062,0.018l0.001,2.42
		c0.001,0.728-0.794,1.105-1.208,1.25l5.25,3.214L46.346,28.673z"/>
	<path fill="#D6AC7A" d="M44.988,27.382l-0.006-2.026c-1.059,2.058-3.202,3.467-5.676,3.467c-0.994,0-1.935-0.228-2.773-0.633
		c-0.261,0.234-0.597,0.381-0.82,0.459l5.25,3.215l5.383-3.191C46.018,28.58,44.99,28.207,44.988,27.382z"/>
</g>
<path fill="#C29970" d="M44.982,25.355l-0.001-0.394l-8.062,0.017l0.001,2.421c0.001,0.333-0.167,0.593-0.388,0.791
	c0.839,0.405,1.779,0.633,2.773,0.633C41.78,28.822,43.924,27.414,44.982,25.355z"/>
<path fill="#6F5651" d="M46.945,9.833c-3.049,0.442-7.053-2.426-10.035,0.019c-1.805,0.003-2.952,1.443-2.949,3.362
	c0.004,1.809,1.002,5.398,1.002,5.398l0.002,0.969c-0.003-1.761,1.031-4.724,1.031-4.724c5.176-0.01,9.437,1.47,10.963,2.075v-0.094
	v0.094c0.111,0.044,0.207,0.083,0.288,0.117C48.063,13.552,47.312,10.66,46.945,9.833z"/>
<path fill="#E2BE88" d="M34.965,19.582c0.008,3.747,2.649,7.242,6,7.236c3.352-0.006,6.007-3.322,6-7.069l-0.006-2.816
	c-1.526-0.605-5.787-2.084-10.963-2.075C35.996,14.858,34.962,17.821,34.965,19.582z"/>
<path fill="#D6AC7A" d="M37.129,20.45c-0.103-4.866,0.706-4.621,0.706-4.621c1.47-0.339,3.647-0.252,6.026,0.091
	c-2.047-0.549-4.795-1.067-7.865-1.062c0,0-1.034,2.963-1.031,4.724c0.007,3.478,2.283,6.736,5.289,7.183
	C38.951,25.736,37.189,23.379,37.129,20.45z"/>
<path fill="#C0DFF8" d="M52.984,33.617c-0.004-1.68-1.065-3.47-2.893-3.979l-3.745-0.965c-0.001,0-0.001,0-0.001,0l-5.383,3.191
	l-5.25-3.215c-0.057,0.02-0.105,0.035-0.145,0.047l-3.742,0.979c-1.826,0.515-2.881,2.31-2.877,3.989l0.002,1.082
	c0.001,0.632,0.587,1.144,1.31,1.143l21.42-0.043c0.722-0.002,1.307-0.516,1.306-1.148L52.984,33.617z"/>
<g>
	<path fill="#AED0ED" d="M33.324,35.828v-1.204c0-0.617-0.279-1.206-0.77-1.618l-2.568-2.143c-0.673,0.784-1.039,1.813-1.037,2.801
		l0.002,1.082c0,0.428,0.27,0.799,0.667,0.995c0.167,0.056,0.327,0.088,0.458,0.088L33.324,35.828L33.324,35.828L33.324,35.828z"/>
	<path fill="#AED0ED" d="M52.986,34.697l-0.002-1.08c-0.002-0.863-0.283-1.755-0.805-2.487l-2.311,1.876
		c-0.489,0.412-0.77,1.001-0.77,1.618v1.205h2.791C52.513,35.739,52.987,35.268,52.986,34.697z"/>
</g>
<path fill="#624C4C" d="M46.945,9.833c-1.324,0.192-2.828-0.24-4.35-0.59c-1.984-0.457-3.998-0.774-5.686,0.609
	c-0.014,0-0.027,0.001-0.042,0.001c-0.209,0.216,0.187,0.828,0.187,0.828s-0.793,0.375-1.126,1.877
	c-0.183,0.821-0.134,1.702,0.123,2.301c2.349,0,4.507,0.306,6.306,0.697c2.143,0.465,3.774,1.05,4.602,1.378
	c0.111,0.044,0.207,0.083,0.287,0.117C48.063,13.552,47.312,10.66,46.945,9.833z"/>
<g>
	<path fill="#717384" d="M4.9,63.063c-0.995,0.001-1.99-0.377-2.75-1.134c-1.521-1.515-1.525-3.976-0.01-5.497l13.349-13.399
		c1.515-1.521,3.976-1.525,5.497-0.011c1.521,1.516,1.525,3.977,0.011,5.497L7.646,61.918C6.889,62.679,5.895,63.061,4.9,63.063z"/>
</g>
<path fill="#5C5D6D" d="M3.465,57.757l13.35-13.399c1.289-1.294,3.262-1.489,4.758-0.586c-0.161-0.268-0.356-0.52-0.587-0.75
	c-1.521-1.515-3.982-1.51-5.497,0.011L2.139,56.432c-1.515,1.521-1.51,3.982,0.011,5.497c0.227,0.226,0.475,0.417,0.738,0.575
	C1.988,61.014,2.18,59.047,3.465,57.757z"/>
<g>
	<path fill="#717384" d="M1.006,59.183c0-0.124,0.005-0.249,0.017-0.373C1.012,58.934,1.006,59.059,1.006,59.183z"/>
	<path fill="#717384" d="M2.313,62.082c-0.055-0.049-0.108-0.099-0.16-0.15C2.205,61.983,2.259,62.033,2.313,62.082z"/>
	<path fill="#717384" d="M21.181,43.232c0.037,0.043,0.073,0.086,0.107,0.129C21.253,43.318,21.217,43.275,21.181,43.232z"/>
	<path fill="#717384" d="M2.488,62.228c-0.045-0.034-0.088-0.071-0.132-0.108C2.4,62.156,2.444,62.192,2.488,62.228z"/>
	<path fill="#717384" d="M21.325,43.409c0.036,0.047,0.07,0.095,0.104,0.142C21.396,43.504,21.361,43.456,21.325,43.409z"/>
	<path fill="#717384" d="M20.987,43.023c0.053,0.053,0.104,0.107,0.154,0.162C21.091,43.131,21.04,43.076,20.987,43.023z"/>
	<path fill="#717384" d="M2.678,62.368c-0.05-0.034-0.099-0.071-0.148-0.108C2.579,62.297,2.627,62.333,2.678,62.368z"/>
</g>
<path fill="#C7CDDF" d="M21.455,43.588c0.041,0.06,0.081,0.121,0.118,0.184c-1.497-0.903-3.47-0.708-4.758,0.586l-0.004,0.004
	l4.172,4.172l0.014-0.015C22.334,47.175,22.486,45.098,21.455,43.588z"/>
<g>
	<path fill="#5C5D6D" d="M1.288,57.719c0.071-0.176,0.155-0.347,0.252-0.512C1.443,57.372,1.359,57.543,1.288,57.719z"/>
	<path fill="#5C5D6D" d="M2.357,62.119c-0.015-0.013-0.029-0.025-0.044-0.037C2.327,62.094,2.342,62.106,2.357,62.119z"/>
	<path fill="#5C5D6D" d="M2.706,62.387c-0.009-0.006-0.019-0.012-0.028-0.019C2.687,62.375,2.696,62.381,2.706,62.387z"/>
	<path fill="#5C5D6D" d="M2.53,62.26c-0.014-0.011-0.028-0.021-0.042-0.032C2.502,62.238,2.516,62.249,2.53,62.26z"/>
	<path fill="#5C5D6D" d="M1.116,58.257c0.029-0.122,0.065-0.242,0.106-0.36C1.181,58.016,1.145,58.135,1.116,58.257z"/>
	<path fill="#5C5D6D" d="M21.14,43.186c0.014,0.016,0.027,0.031,0.041,0.047C21.167,43.217,21.154,43.201,21.14,43.186z"/>
	<path fill="#5C5D6D" d="M21.288,43.361c0.013,0.016,0.025,0.031,0.038,0.048C21.313,43.393,21.3,43.377,21.288,43.361z"/>
	<path fill="#5C5D6D" d="M1.047,59.74c0.117,0.801,0.484,1.572,1.103,2.188c0.001,0.001,0.002,0.002,0.003,0.003
		C2.152,61.93,2.151,61.93,2.15,61.929C1.532,61.313,1.165,60.541,1.047,59.74z"/>
	<path fill="#5C5D6D" d="M15.489,43.032c0.805-0.808,1.877-1.188,2.933-1.14C17.366,41.844,16.293,42.225,15.489,43.032
		l-0.004,0.004l0,0L15.489,43.032z"/>
	<path fill="#5C5D6D" d="M21.429,43.551c0.008,0.013,0.017,0.024,0.025,0.037C21.446,43.575,21.438,43.563,21.429,43.551z"/>
	<path fill="#5C5D6D" d="M20.987,43.023c0,0-0.001-0.001-0.001-0.002c-0.19-0.189-0.395-0.354-0.611-0.496
		c0.216,0.142,0.42,0.307,0.611,0.496C20.986,43.022,20.986,43.023,20.987,43.023z"/>
</g>
<path fill="#AFB7CF" d="M15.489,43.032l-0.004,0.004l1.325,1.325l0.004-0.004c1.289-1.294,3.262-1.489,4.759-0.586
	c-0.038-0.063-0.077-0.124-0.118-0.184c-0.008-0.013-0.017-0.024-0.025-0.037c-0.034-0.047-0.068-0.095-0.104-0.142
	c-0.013-0.017-0.025-0.032-0.038-0.048c-0.034-0.043-0.07-0.086-0.107-0.129c-0.013-0.016-0.026-0.031-0.04-0.047
	c-0.05-0.055-0.101-0.109-0.154-0.162c0-0.001-0.001-0.002-0.001-0.002c-0.19-0.189-0.395-0.355-0.611-0.496
	c-0.594-0.391-1.27-0.602-1.954-0.633C17.366,41.844,16.293,42.225,15.489,43.032z"/>
<path fill="#D7DCEB" d="M40.933,0.938C28.771,0.961,18.932,10.838,18.954,23c0.023,12.161,9.9,22,22.062,21.979
	c12.161-0.023,22.001-9.9,21.979-22.062C62.971,10.755,53.094,0.916,40.933,0.938z M41.008,41.229
	c-10.089,0.019-18.285-8.146-18.304-18.236C22.686,12.902,30.85,4.707,40.939,4.688c10.091-0.019,18.285,8.146,18.305,18.236
	C59.263,33.014,51.099,41.209,41.008,41.229z"/>
<path d="M57.191,6.708C52.857,2.382,47.098,0,40.975,0h-0.044c-6.132,0.012-11.893,2.41-16.221,6.755
	c-4.328,4.344-6.705,10.114-6.693,16.246c0.011,5.785,2.148,11.239,6.037,15.473l-3.219,3.231c-0.767-0.49-1.659-0.755-2.592-0.755
	c-1.292,0-2.506,0.505-3.418,1.42L1.475,55.77c-0.91,0.913-1.409,2.125-1.407,3.414s0.507,2.5,1.419,3.41
	C2.398,63.5,3.607,64,4.893,64c0,0,0.008,0,0.009,0c1.289-0.002,2.5-0.507,3.409-1.42l13.35-13.399
	c0.91-0.913,1.409-2.126,1.407-3.415c-0.002-1.004-0.31-1.959-0.876-2.764l3.187-3.199c4.256,3.947,9.76,6.113,15.595,6.113h0.045
	c12.658-0.023,22.938-10.342,22.914-23.001C63.921,16.79,61.527,11.035,57.191,6.708z M20.331,47.856L6.982,61.256
	c-0.556,0.559-1.296,0.866-2.083,0.867l-0.005,0.938v-0.938c-0.786,0-1.525-0.305-2.081-0.859c-0.558-0.556-0.866-1.295-0.868-2.083
	s0.304-1.528,0.86-2.087l13.35-13.399c0.557-0.56,1.299-0.867,2.089-0.867c0.785,0,1.524,0.305,2.081,0.859
	c0.558,0.556,0.866,1.296,0.868,2.083S20.887,47.299,20.331,47.856z M41.014,44.039h-0.041c-11.602,0-21.058-9.439-21.08-21.042
	c-0.01-5.631,2.172-10.929,6.146-14.918c3.975-3.989,9.264-6.192,14.896-6.202h0.04c11.602,0,21.059,9.439,21.081,21.042
	C62.077,34.543,52.639,44.018,41.014,44.039z"/>
<path d="M58.838,16.605c-0.943-2.653-2.504-5.109-4.514-7.103s-4.479-3.535-7.14-4.458c-0.489-0.17-1.024,0.09-1.194,0.58
	c-0.17,0.489,0.09,1.024,0.58,1.194c4.853,1.682,8.777,5.576,10.499,10.417c0.137,0.384,0.498,0.624,0.884,0.624
	c0.104,0,0.211-0.018,0.314-0.055C58.756,17.63,59.012,17.094,58.838,16.605z"/>
<path d="M50.377,28.836c-0.006-0.001-0.012-0.003-0.017-0.004l-3.732-0.962c-0.358-0.105-0.638-0.301-0.667-0.389l-0.006-2.064
	c0.008-0.009,0.016-0.018,0.023-0.027c1.268-1.52,1.963-3.487,1.959-5.54l-0.004-1.52c1.268-4.144,0.365-7.731-0.096-8.774
	c-0.001-0.003-0.002-0.006-0.004-0.009c-0.009-0.019-0.019-0.038-0.028-0.056c-0.005-0.009-0.01-0.019-0.015-0.028
	c-0.01-0.017-0.021-0.033-0.031-0.048c-0.008-0.011-0.014-0.021-0.021-0.031c-0.01-0.014-0.02-0.026-0.03-0.04
	c-0.009-0.011-0.019-0.022-0.027-0.033C47.67,9.3,47.66,9.289,47.648,9.278c-0.01-0.011-0.021-0.021-0.031-0.032
	c-0.012-0.011-0.023-0.021-0.036-0.031c-0.011-0.009-0.021-0.018-0.032-0.026c-0.016-0.012-0.031-0.022-0.047-0.032
	c-0.009-0.006-0.018-0.012-0.026-0.018c-0.02-0.012-0.04-0.023-0.062-0.034c-0.005-0.003-0.01-0.006-0.016-0.009
	c-0.023-0.012-0.049-0.022-0.073-0.033c-0.003-0.001-0.005-0.002-0.007-0.003c-0.026-0.01-0.053-0.019-0.08-0.026
	c-0.002,0-0.004-0.001-0.006-0.002c-0.025-0.007-0.051-0.012-0.076-0.017c-0.004-0.001-0.009-0.002-0.014-0.003
	c-0.021-0.004-0.043-0.006-0.065-0.009C47.068,9.002,47.059,9.001,47.05,9c-0.018-0.001-0.035-0.001-0.053-0.001
	c-0.015,0-0.028-0.001-0.044,0c-0.014,0-0.027,0.002-0.041,0.003c-0.018,0.001-0.036,0.002-0.055,0.005
	c-0.004,0-0.008,0-0.012,0.001c-0.976,0.142-2.158-0.139-3.41-0.437c-2.196-0.521-4.674-1.108-6.828,0.461
	c-2.08,0.174-3.554,1.924-3.549,4.287l0,0l0,0c0.002,1.738,0.82,4.853,1.002,5.523v0.5c0,0,0,0.001,0,0.001v0l0.002,0.341
	c0.003,2.03,0.715,4.076,1.953,5.612c0,0.001,0,0.001,0,0.001l0.002,2.206c-0.027,0.085-0.307,0.282-0.664,0.388l-3.729,0.976
	c-0.005,0.001-0.011,0.003-0.017,0.005c-2.343,0.661-3.564,2.962-3.561,4.894l0.002,1.081c0.001,0.572,0.258,1.123,0.706,1.514
	c0.418,0.365,0.964,0.565,1.54,0.565c0.001,0,0.003,0,0.004,0l10.687-0.021c0.007,0.001,0.014,0.001,0.021,0.001
	c0,0,0.001,0,0.002,0c0.008,0,0.016,0,0.023-0.001l10.686-0.021c1.239-0.003,2.245-0.939,2.242-2.088l-0.002-1.082
	C53.953,31.785,52.723,29.489,50.377,28.836z M41,30.874l-3.569-2.132c0.282-0.335,0.464-0.748,0.464-1.241l-0.001-0.532
	c0.952,0.581,2.005,0.89,3.097,0.89c0.004,0,0.008,0,0.011,0c1.088-0.002,2.136-0.296,3.083-0.848l0.001,0.476
	c0.001,0.507,0.194,0.929,0.491,1.269L41,30.874z M34.934,13.314c-0.002-1.116,0.524-2.419,2.014-2.422c0.003,0,0.006,0,0.01,0
	c0.027,0,0.055-0.001,0.082-0.004c0.01-0.001,0.02-0.003,0.029-0.004c0.021-0.003,0.041-0.005,0.062-0.01
	c0.013-0.002,0.024-0.006,0.038-0.009c0.017-0.004,0.033-0.008,0.051-0.013c0.014-0.004,0.027-0.009,0.04-0.014
	c0.016-0.005,0.03-0.011,0.046-0.017c0.014-0.006,0.028-0.013,0.042-0.02c0.014-0.006,0.027-0.013,0.04-0.02
	c0.017-0.008,0.031-0.018,0.047-0.027c0.011-0.007,0.021-0.013,0.032-0.02c0.02-0.013,0.038-0.027,0.058-0.042
	c0.005-0.004,0.011-0.008,0.016-0.013c1.495-1.226,3.422-0.768,5.461-0.284c1.091,0.259,2.211,0.524,3.293,0.524
	c0.012,0,0.023,0,0.035,0c0.271,0.974,0.549,2.744,0.254,4.855c-1.574-0.578-5.406-1.753-10.492-1.753c-0.021,0-0.041,0-0.062,0
	c-0.003,0-0.005,0-0.007,0c-0.021,0-0.043,0.001-0.065,0.003c-0.01,0.001-0.021,0.001-0.03,0.002
	c-0.018,0.002-0.035,0.005-0.053,0.008c-0.014,0.002-0.027,0.004-0.041,0.007c-0.012,0.002-0.023,0.006-0.035,0.009
	c-0.018,0.005-0.037,0.009-0.055,0.015c-0.006,0.002-0.012,0.004-0.018,0.006c-0.022,0.008-0.045,0.016-0.067,0.026
	c-0.003,0.001-0.005,0.002-0.009,0.003c-0.023,0.011-0.049,0.023-0.072,0.036c-0.005,0.003-0.01,0.007-0.016,0.01
	c-0.02,0.012-0.04,0.023-0.06,0.037c-0.013,0.009-0.024,0.019-0.037,0.028c-0.011,0.008-0.022,0.016-0.034,0.025
	c-0.016,0.013-0.031,0.028-0.047,0.042c-0.006,0.006-0.013,0.012-0.019,0.018c-0.015,0.014-0.028,0.03-0.042,0.046
	c-0.006,0.007-0.013,0.014-0.02,0.021c-0.01,0.013-0.02,0.027-0.029,0.041c-0.009,0.012-0.018,0.022-0.025,0.034
	c-0.007,0.011-0.014,0.022-0.02,0.033c-0.01,0.016-0.02,0.032-0.028,0.049c-0.005,0.008-0.009,0.018-0.013,0.026
	c-0.01,0.02-0.02,0.04-0.027,0.06c-0.001,0.002-0.002,0.004-0.003,0.006c-0.007,0.016-0.032,0.083-0.071,0.188
	C34.995,14.24,34.935,13.717,34.934,13.314z M35.938,19.682v-0.343c-0.002-1.019,0.432-2.512,0.748-3.434
	c4.615,0.09,8.088,1.204,9.371,1.679v0.599c0,0.004,0,0.007,0,0.011l0.004,1.66c0.006,3.317-2.313,6.124-5.063,6.129
	c-0.003,0-0.006,0-0.008,0c-1.3,0-2.548-0.661-3.514-1.861C36.502,22.911,35.941,21.292,35.938,19.682z M30.293,35.052
	C30.293,35.052,30.293,35.052,30.293,35.052c-0.121,0-0.232-0.038-0.307-0.103c-0.019-0.017-0.063-0.06-0.063-0.104l-0.002-1.081
	c-0.002-1.222,0.748-2.671,2.186-3.082l3.416-0.894l4.537,2.71l0.005,2.533L30.293,35.052z M51.713,35.009l-9.771,0.02L41.938,32.5
	l4.586-2.719l3.359,0.865c1.439,0.405,2.195,1.852,2.197,3.074l0.002,1.08C52.082,34.875,51.942,35.008,51.713,35.009z"/>
</svg>
