<?xml version="1.0" encoding="utf-8"?>
<!-- Generator: Adobe Illustrator 14.0.0, SVG Export Plug-In . SVG Version: 6.00 Build 43363)  -->
<!DOCTYPE svg PUBLIC "-//W3C//DTD SVG 1.1//EN" "http://www.w3.org/Graphics/SVG/1.1/DTD/svg11.dtd">
<svg version="1.1" id="Layer_1" xmlns="http://www.w3.org/2000/svg" xmlns:xlink="http://www.w3.org/1999/xlink" x="0px" y="0px"
	 width="64px" height="64px" viewBox="0 0 64 64" enable-background="new 0 0 64 64" xml:space="preserve">
<g>
	<g>
		<path fill="#1C75BC" d="M43.17,20.004h-6.41v-3.195l1.08-0.477c0.84-0.372,1.359-1.096,1.359-1.891V7.167
			c0.111-1.717-0.605-3.35-2.014-4.602c-0.529-0.469-1.127-0.858-1.776-1.163V1.384l-0.315-0.122
			c-0.887-0.37-1.859-0.587-2.875-0.634c-0.012,0-0.025-0.004-0.034-0.004c-0.132-0.005-0.263-0.008-0.396-0.008
			c-2.075,0-3.997,0.697-5.416,1.962c-1.412,1.26-2.122,2.901-1.999,4.623v2.539v4.743c0,0.8,0.528,1.528,1.378,1.899l1.133,0.494
			v3.129h-6.41c-2.971,0-5.388,2.027-5.388,4.518v7.126h1.701v-7.126l0,0c0-1.705,1.654-3.092,3.687-3.092h10.497v5.561h1.7V21.43
			H43.17c2.033,0,3.688,1.388,3.688,3.092v7.126h1.703v-7.126C48.561,22.031,46.143,20.004,43.17,20.004z M34.529,4.756
			c0.304-0.568,0.527-1.159,0.672-1.769c0.262,0.165,0.514,0.35,0.744,0.554c1.027,0.911,1.574,2.084,1.564,3.328
			c-1.33-0.113-2.518-0.724-3.236-1.67C34.363,5.054,34.449,4.907,34.529,4.756z M27.616,3.553c1.022-0.914,2.39-1.442,3.873-1.505
			c0.075-0.003,0.152-0.005,0.228-0.005c0.023,0,0.048-0.002,0.072-0.002c0.1,0,0.202,0.002,0.303,0.007
			c0.013,0,0.022,0.002,0.034,0.002c0.298,0.014,0.591,0.047,0.882,0.102c0.205,0.036,0.406,0.083,0.607,0.14
			c-0.104,0.652-0.32,1.282-0.641,1.882c-1.242,2.331-3.901,3.896-6.9,4.113V7.178l-0.002-0.042
			C25.976,5.8,26.521,4.527,27.616,3.553z M26.534,15.115c-0.282-0.123-0.459-0.367-0.459-0.633V9.716
			c2.863-0.17,5.479-1.364,7.211-3.23C34.332,7.538,35.842,8.198,37.5,8.3v6.141c0,0.265-0.174,0.506-0.455,0.63l-4.865,2.148
			c-0.25,0.11-0.543,0.111-0.791,0.005L26.534,15.115z M35.057,20.004H28.59v-2.391l0,0l2.017,0.876
			c0.368,0.159,0.771,0.239,1.173,0.239c0.411,0,0.817-0.082,1.192-0.248l2.084-0.919V20.004z"/>
	</g>
</g>
<g>
	<g>
		<rect x="41.184" y="27.845" fill="#1C75BC" width="1.699" height="3.803"/>
	</g>
</g>
<g>
	<g>
		<rect x="20.758" y="27.845" fill="#1C75BC" width="1.702" height="3.803"/>
	</g>
</g>
<g>
	<g>
		<path fill="#754C29" d="M2.944,32.837v6.135h3.517v9.961h1.702v-9.961h47.321v9.961h1.699v-9.961h3.52v-6.135H2.944z
			 M58.998,37.557H4.645v-3.306h54.353V37.557z"/>
	</g>
</g>
<g>
	<g>
		<polygon fill="#754C29" points="41.475,41.295 41.475,49.041 43.178,49.041 43.178,42.717 48.479,42.717 48.479,49.041 
			50.182,49.041 50.182,41.295 		"/>
	</g>
</g>
<g>
	<g>
		<polygon fill="#754C29" points="27.47,41.295 27.47,49.041 29.171,49.041 29.171,42.717 34.475,42.717 34.475,49.041 
			36.176,49.041 36.176,41.295 		"/>
	</g>
</g>
<g>
	<g>
		<polygon fill="#754C29" points="13.465,41.295 13.465,49.041 15.167,49.041 15.167,42.717 20.467,42.717 20.467,49.041 
			22.17,49.041 22.17,41.295 		"/>
	</g>
</g>
</svg>
