<?xml version="1.0" encoding="utf-8"?>
<!-- Generator: Adobe Illustrator 14.0.0, SVG Export Plug-In . SVG Version: 6.00 Build 43363)  -->
<!DOCTYPE svg PUBLIC "-//W3C//DTD SVG 1.1//EN" "http://www.w3.org/Graphics/SVG/1.1/DTD/svg11.dtd">
<svg version="1.1" id="Layer_1" xmlns="http://www.w3.org/2000/svg" xmlns:xlink="http://www.w3.org/1999/xlink" x="0px" y="0px"
	 width="62px" height="36px" viewBox="0 0 62 36" enable-background="new 0 0 62 36" xml:space="preserve">
<polygon fill="#010101" points="31.472,9.585 22.683,9.585 22.683,14.068 31.472,14.068 31.472,18.831 39.573,11.827 31.472,4.823 
	"/>
<ellipse fill="#1C75BC" cx="10.081" cy="9.874" rx="4.848" ry="5.63"/>
<path fill="#1C75BC" d="M0.257,22.124c0,5.248,0,6.466,0,6.466s9.562,0,9.595,0L5.169,16.798
	C5.169,16.798,0.257,16.875,0.257,22.124z"/>
<path fill="#1C75BC" d="M14.993,16.798L10.31,28.59h9.594c0,0,0-1.218,0-6.468C19.904,16.875,14.993,16.798,14.993,16.798z"/>
<polygon fill="#1C75BC" points="10.081,16.798 6.708,16.798 10.081,25.469 13.453,16.798 "/>
<ellipse fill="#726658" cx="52.176" cy="9.874" rx="4.847" ry="5.63"/>
<path fill="#726658" d="M42.352,22.124c0,5.248,0,6.466,0,6.466s9.563,0,9.594,0l-4.681-11.792
	C47.265,16.798,42.352,16.875,42.352,22.124z"/>
<path fill="#726658" d="M57.089,16.798L52.404,28.59H62c0,0,0-1.218,0-6.466C62,16.875,57.089,16.798,57.089,16.798z"/>
<polygon fill="#726658" points="52.176,16.798 48.802,16.798 52.176,25.469 55.55,16.798 "/>
<polygon fill="#726658" points="29.89,27.889 38.68,27.875 38.672,23.393 29.883,23.406 29.876,18.644 21.785,25.66 29.897,32.65 
	"/>
<line fill="none" x1="36.415" y1="19.564" x2="107.126" y2="-51.146"/>
<line fill="none" stroke="#ED1C24" stroke-width="3" x1="37.415" y1="19.564" x2="32" y2="31.462"/>
</svg>
