<?xml version="1.0" encoding="utf-8"?>
<!-- Generator: Adobe Illustrator 14.0.0, SVG Export Plug-In . SVG Version: 6.00 Build 43363)  -->
<!DOCTYPE svg PUBLIC "-//W3C//DTD SVG 1.1//EN" "http://www.w3.org/Graphics/SVG/1.1/DTD/svg11.dtd">
<svg version="1.1" id="Layer_1" xmlns="http://www.w3.org/2000/svg" xmlns:xlink="http://www.w3.org/1999/xlink" x="0px" y="0px"
	 width="62px" height="46px" viewBox="0 0 62 46" enable-background="new 0 0 62 46" xml:space="preserve">
<path id="XMLID_90_" fill="#2B3990" d="M38.729,14.17c1.625,0,3.246,0.378,4.691,1.094l2.483,1.23l-1.318-7.335
	C44.512,8.767,44.16,8.48,43.746,8.48h-2.692V7.251h1.315c0.666,0,1.203-0.517,1.203-1.157c0-0.639-0.537-1.158-1.203-1.158h-1.315
	V4.814c0-0.451-0.382-0.817-0.851-0.817h-0.355l0.004-1.619c0-0.641-0.538-1.159-1.203-1.161c-0.001,0-0.001,0-0.001,0
	c-0.665,0-1.203,0.518-1.204,1.156l-0.004,1.623h-0.348c-0.473,0-0.853,0.366-0.853,0.817v0.123h-1.314
	c-0.664,0-1.203,0.518-1.203,1.158s0.539,1.157,1.203,1.157h1.314V8.48h-2.688c-0.416,0-0.77,0.287-0.842,0.678L31.38,16.56
	l2.714-1.324C35.521,14.539,37.127,14.17,38.729,14.17z"/>
<path id="XMLID_89_" fill="#C49A6C" d="M14.277,10.139c0.039,2.116,1.839,3.762,3.975,3.762c2.113,0,3.937-1.623,3.975-3.763
	c-1.015,0.68-2.439,1.126-3.975,1.126C16.715,11.265,15.291,10.818,14.277,10.139z"/>
<path id="XMLID_85_" fill="#010101" d="M14.151,6.986v0.906c0.002,0.896,1.836,2.064,4.1,2.064c2.264,0,4.097-1.167,4.099-2.064
	V6.987c1.003-0.323,1.734-1.016,1.734-1.972c0-1.898-2.602-4.19-5.833-4.19c-3.23,0-5.833,2.292-5.833,4.19
	C12.418,5.796,12.924,6.591,14.151,6.986z M18.251,7.799c-0.53,0-0.979-0.712-0.979-1.554c0-0.843,0.449-1.554,0.979-1.554
	c0.531,0,0.979,0.711,0.979,1.554C19.23,7.087,18.782,7.799,18.251,7.799z M18.251,2.135c2.608,0,4.471,1.811,4.471,2.88
	c0,0.259-0.175,0.452-0.461,0.602c-0.233-0.218-1.172-0.399-2.467-0.479c-0.295-0.718-0.865-1.2-1.543-1.2
	c-0.678,0-1.248,0.482-1.543,1.2c-1.294,0.081-2.235,0.262-2.466,0.479c-0.286-0.149-0.462-0.342-0.462-0.601
	C13.78,3.946,15.643,2.135,18.251,2.135z"/>
<path id="XMLID_84_" fill="#603913" d="M52.304,22.104l-9.918-4.912c-0.83-0.411-1.718-0.669-2.62-0.782l-0.791,13.551
	c-0.013,0.199-0.19,0.354-0.396,0.343c-0.192-0.011-0.343-0.161-0.356-0.343l-0.788-13.507c-0.796,0.125-1.581,0.357-2.318,0.717
	l-7.296,3.558l2.877,6.065c0.838,1.767,0.026,3.859-1.81,4.665c-0.239,0.104-0.497,0.156-0.75,0.206l2.6,6.257
	c0.199,0.478,0.68,0.79,1.214,0.79h13.392c0.535,0,1.014-0.313,1.213-0.79l6.149-14.788C52.865,22.743,52.694,22.297,52.304,22.104z
	"/>
<path id="XMLID_76_" fill="#010101" d="M28.916,27.576l-5.675-11.96c-0.396-0.833-1.39-0.962-2.323-0.978
	c-0.245-0.215-1.081-0.723-1.229-0.819c-0.136-0.089-0.318-0.085-0.45,0.01l-0.987,0.701l-0.988-0.701
	c-0.132-0.095-0.311-0.101-0.451-0.01c-0.154,0.098-0.977,0.599-1.228,0.818c-0.961,0.011-1.925,0.138-2.324,0.978l-5.676,11.96
	c-0.39,0.822-0.013,1.794,0.841,2.169c0.864,0.38,1.868,0.006,2.256-0.809l2.744-5.784v6.239c0,0.009-0.005,0.015-0.005,0.021
	v14.122c0,1.085,0.915,1.965,2.042,1.965c1.127,0,2.043-0.88,2.043-1.965V31.827h1.49v11.708c0,1.085,0.915,1.965,2.042,1.965
	c1.126,0,2.041-0.88,2.041-1.965V29.413c0-0.007-0.003-0.013-0.003-0.021v-6.235l2.743,5.78c0.387,0.814,1.39,1.188,2.254,0.809
	C28.93,29.37,29.307,28.397,28.916,27.576z M19.483,14.593l0.722,0.462l-0.503,1.599l-0.937-1.552L19.483,14.593z M17.019,14.593
	l0.718,0.509L16.8,16.654l-0.503-1.599L17.019,14.593z M17.146,21.235c-0.912-1.298-2.022-4.943-1.68-6.361
	c-0.012,0.178,0.791,2.655,0.844,2.827c0.097,0.313,0.54,0.367,0.713,0.081l0.673-1.114l0.19,0.182
	C17.275,17.623,17.166,20.298,17.146,21.235z M18.25,26.854c-0.311,0-0.563-0.242-0.563-0.54c0-0.3,0.252-0.542,0.563-0.542
	c0.31,0,0.563,0.242,0.563,0.542C18.813,26.611,18.561,26.854,18.25,26.854z M18.25,23.841c-0.311,0-0.563-0.243-0.563-0.541
	s0.268-0.542,0.563-0.542c0.301,0,0.563,0.248,0.563,0.542C18.813,23.598,18.561,23.841,18.25,23.841z M19.356,21.232
	c-0.02-0.938-0.13-3.61-0.743-4.383l0.191-0.183l0.673,1.115c0.172,0.285,0.615,0.234,0.713-0.081
	c0.057-0.18,0.851-2.634,0.845-2.821C21.373,16.255,20.288,19.907,19.356,21.232z"/>
</svg>
