<?xml version="1.0" encoding="utf-8"?>
<!-- Generator: Adobe Illustrator 14.0.0, SVG Export Plug-In  -->
<!DOCTYPE svg PUBLIC "-//W3C//DTD SVG 1.1//EN" "http://www.w3.org/Graphics/SVG/1.1/DTD/svg11.dtd" [
	<!ENTITY ns_flows "http://ns.adobe.com/Flows/1.0/">
]>
<svg version="1.1"
	 xmlns="http://www.w3.org/2000/svg" xmlns:xlink="http://www.w3.org/1999/xlink" xmlns:a="http://ns.adobe.com/AdobeSVGViewerExtensions/3.0/"
	 x="0px" y="0px" width="50px" height="39px" viewBox="-6.148 -0.496 50 39" enable-background="new -6.148 -0.496 50 39"
	 xml:space="preserve">
<defs>
</defs>
<circle fill="#E12159" cx="18.814" cy="18.814" r="18.814"/>
<path fill="#FFFFFF" d="M22.018,13.165v14.296c0,1.113,0.146,1.855,0.443,2.223c0.294,0.371,0.729,0.646,1.31,0.826
	c0.576,0.182,1.634,0.271,3.165,0.271v0.699H11.188v-0.699c1.581,0,2.642-0.084,3.186-0.252c0.542-0.168,0.973-0.445,1.292-0.834
	c0.319-0.389,0.478-1.133,0.478-2.234v-6.857c0-1.929-0.106-3.178-0.318-3.748c-0.166-0.415-0.424-0.703-0.779-0.864
	c-0.354-0.163-0.837-0.243-1.452-0.243c-0.661,0-1.463,0.097-2.407,0.291l-0.495-0.699l9.768-2.175H22.018z M19.081,4.38
	c1.089,0,2.014,0.339,2.775,1.015c0.765,0.677,1.147,1.497,1.147,2.458c0,0.964-0.383,1.789-1.147,2.477
	c-0.762,0.688-1.687,1.031-2.775,1.031c-1.087,0-2.019-0.344-2.796-1.031c-0.776-0.688-1.165-1.513-1.165-2.477
	c0-0.962,0.382-1.781,1.146-2.458C17.03,4.719,17.969,4.38,19.081,4.38z"/>
</svg>
