<?xml version="1.0" encoding="utf-8"?>
<!-- Generator: Adobe Illustrator 14.0.0, SVG Export Plug-In . SVG Version: 6.00 Build 43363)  -->
<!DOCTYPE svg PUBLIC "-//W3C//DTD SVG 1.1//EN" "http://www.w3.org/Graphics/SVG/1.1/DTD/svg11.dtd">
<svg version="1.1" id="Layer_1" xmlns="http://www.w3.org/2000/svg" xmlns:xlink="http://www.w3.org/1999/xlink" x="0px" y="0px"
	 width="841.89px" height="595.281px" viewBox="0 0 841.89 595.281" enable-background="new 0 0 841.89 595.281"
	 xml:space="preserve">
<polygon fill="#5D5F60" points="649.445,595.281 188.445,595.281 188.445,0 510.382,0 649.445,139.732 "/>
<polygon fill="#E4EFF9" points="639.436,584.141 199.21,584.141 199.21,9.89 503.928,9.89 639.436,145.093 "/>
<polygon fill="#7B7C7C" points="621.66,159.133 490.078,159.133 490.078,27.551 "/>
<g>
	<rect x="226.253" y="199.12" fill="#1976D2" width="395.407" height="27.701"/>
	<rect x="226.253" y="224.079" fill="#FFB806" width="395.407" height="5.484"/>
	<rect x="226.253" y="493.349" fill="#FFB806" width="395.407" height="25"/>
	<rect x="560.554" y="535.173" fill="#FF5408" width="61.105" height="25"/>
	<rect x="226.253" y="281.128" fill="#1976D2" width="175.025" height="25"/>
	<rect x="226.253" y="332.021" fill="#1976D2" width="175.025" height="25"/>
	<rect x="226.253" y="382.916" fill="#1976D2" width="145.987" height="25"/>
	<rect x="226.253" y="433.81" fill="#1976D2" width="121.417" height="25"/>
	<rect x="560.554" y="281.128" fill="#1976D2" width="56.639" height="25"/>
	<rect x="577.741" y="332.021" fill="#1976D2" width="39.452" height="25"/>
	<rect x="560.554" y="382.916" fill="#1976D2" width="56.639" height="25"/>
	<rect x="577.741" y="433.81" fill="#1976D2" width="39.452" height="25"/>
	<circle fill="#DD2C52" cx="272.603" cy="87.673" r="46.349"/>
</g>
</svg>
