<?xml version="1.0" encoding="utf-8"?>
<!-- Generator: Adobe Illustrator 14.0.0, SVG Export Plug-In . SVG Version: 6.00 Build 43363)  -->
<!DOCTYPE svg PUBLIC "-//W3C//DTD SVG 1.1//EN" "http://www.w3.org/Graphics/SVG/1.1/DTD/svg11.dtd">
<svg version="1.1" id="Layer_1" xmlns="http://www.w3.org/2000/svg" xmlns:xlink="http://www.w3.org/1999/xlink" x="0px" y="0px"
	 width="64px" height="64px" viewBox="0 0 64 64" enable-background="new 0 0 64 64" xml:space="preserve">
<path fill="#1C75BC" d="M37.334,39.4V65h25.6V39.4H37.334z M60.8,62.867h-9.6V49.441l4.579,4.58l1.508-1.509l-7.154-7.154
	l-7.154,7.154l1.509,1.509l4.579-4.58v13.426h-9.6V41.533H60.8V62.867z"/>
<path fill="#594A42" d="M51.2,16.559L35.642,1H1.067v64h33.066V52.2H12.8c-0.588,0-1.066-0.478-1.066-1.067s0.478-1.066,1.066-1.066
	h21.333v-6.4H12.8c-0.588,0-1.066-0.477-1.066-1.066s0.478-1.066,1.066-1.066h21.333V36.2H51.2V16.559z M12.8,15.933h10.667
	c0.589,0,1.066,0.477,1.066,1.067s-0.478,1.067-1.066,1.067H12.8c-0.588,0-1.066-0.477-1.066-1.067S12.211,15.933,12.8,15.933z
	 M39.467,35.133H12.8c-0.588,0-1.066-0.477-1.066-1.066S12.211,33,12.8,33h26.667c0.589,0,1.066,0.477,1.066,1.066
	S40.056,35.133,39.467,35.133z M39.467,26.6H12.8c-0.588,0-1.066-0.477-1.066-1.067s0.478-1.066,1.066-1.066h26.667
	c0.589,0,1.066,0.477,1.066,1.066S40.056,26.6,39.467,26.6z M34.133,18.067V3.133l14.934,14.934H34.133z"/>
</svg>
