<?xml version="1.0" encoding="utf-8"?>
<!-- Generator: Adobe Illustrator 14.0.0, SVG Export Plug-In  -->
<!DOCTYPE svg PUBLIC "-//W3C//DTD SVG 1.1//EN" "http://www.w3.org/Graphics/SVG/1.1/DTD/svg11.dtd" [
	<!ENTITY ns_flows "http://ns.adobe.com/Flows/1.0/">
]>
<svg version="1.1"
	 xmlns="http://www.w3.org/2000/svg" xmlns:xlink="http://www.w3.org/1999/xlink" xmlns:a="http://ns.adobe.com/AdobeSVGViewerExtensions/3.0/"
	 x="0px" y="0px" width="50px" height="39px" viewBox="-0.188 -0.04 50 39" enable-background="new -0.188 -0.04 50 39"
	 xml:space="preserve">
<defs>
</defs>
<g id="globe_1_">
	<path fill="#5BA5C5" d="M19.369,39.021c-10.23,0-18.554-8.324-18.554-18.555c0-10.231,8.323-18.555,18.554-18.555
		s18.554,8.324,18.554,18.555C37.923,30.697,29.6,39.021,19.369,39.021L19.369,39.021z"/>
	<path fill="#0C82BF" d="M19.369,2.411c9.971,0,18.054,8.083,18.054,18.055c0,9.972-8.083,18.055-18.054,18.055
		S1.315,30.438,1.315,20.466C1.315,10.495,9.398,2.411,19.369,2.411 M19.369,1.411c-10.506,0-19.054,8.548-19.054,19.055
		c0,10.507,8.547,19.055,19.054,19.055s19.054-8.548,19.054-19.055C38.423,9.959,29.875,1.411,19.369,1.411L19.369,1.411z"/>
</g>
<path fill="#8EC549" d="M34.028,20.746c0,0-0.112,0.073-0.174,0.123c-0.063,0.047-0.162,0.037-0.337,0.037
	c-0.176,0-0.138,0.038-0.276,0.038c-0.139,0-0.089,0.087-0.215,0.101c-0.127,0.012-0.216,0.025-0.29,0.025
	c-0.078,0-0.078-0.098-0.128-0.098c-0.042,0-0.066-0.041-0.073-0.076c-0.002-0.009-0.003-0.015-0.002-0.021
	c0-0.036,0-0.098,0.002-0.171c0-0.074-0.051-0.123-0.115-0.172c-0.063-0.047-0.063-0.097-0.154-0.194
	c-0.089-0.096-0.217-0.221-0.346-0.244c-0.13-0.025-0.013-0.073-0.182-0.295c-0.17-0.221-0.066-0.087-0.106-0.248
	c-0.014-0.062-0.032-0.088-0.056-0.106c-0.037-0.027-0.085-0.034-0.167-0.115c-0.132-0.137-0.105-0.088-0.132-0.137
	c-0.027-0.05-0.016-0.197-0.016-0.235c0-0.036-0.149-0.324-0.205-0.46c-0.055-0.138-0.146-0.065-0.107-0.102
	c0.021-0.019,0.002-0.046-0.025-0.094c-0.023-0.042-0.055-0.102-0.075-0.193c-0.044-0.201-0.141-0.352-0.267-0.494
	c-0.124-0.141-0.083-0.115-0.087-0.216c-0.003-0.1-0.224-0.27-0.226-0.334c-0.002-0.063-0.075-0.179-0.046-0.14
	c0.028,0.038,0.115,0.193,0.158,0.255c0.042,0.066,0.015,0.054,0.193,0.196c0.179,0.143,0.052-0.037,0.061-0.175
	c0.002-0.043-0.007-0.11-0.023-0.183c-0.036-0.167-0.104-0.366-0.133-0.366c-0.039-0.002-0.066-0.014-0.174-0.019
	c-0.107-0.002-0.082-0.028-0.19-0.03c-0.108-0.003-0.084-0.08-0.26-0.084c-0.177-0.006-0.185,0.11-0.319,0.157
	c-0.135,0.047-0.379-0.166-0.448-0.181c-0.07-0.016-0.277-0.009-0.333-0.011c-0.039,0-0.074-0.034-0.12-0.055
	c-0.019-0.007-0.041-0.016-0.065-0.016c-0.084-0.001-0.271-0.099-0.271-0.099s-0.073-0.043-0.164-0.136
	c-0.087-0.095-0.212-0.021-0.298-0.024c-0.085-0.003-0.122,0.113-0.192,0.162c-0.069,0.05,0.011,0.21,0.014,0.3
	c0.004,0.09-0.056,0.024-0.125,0.074c-0.07,0.049-0.244,0.005-0.335-0.064c-0.089-0.069-0.031-0.054-0.107-0.121
	c-0.074-0.069-0.278-0.037-0.336-0.039c-0.06-0.003-0.088-0.003-0.108-0.135c-0.021-0.131-0.126-0.163-0.126-0.163
	s-0.238-0.036-0.342-0.039c-0.104-0.005-0.195-0.036-0.271-0.039c-0.041-0.001-0.076-0.042-0.112-0.08
	c-0.032-0.031-0.064-0.06-0.104-0.062c-0.091-0.004-0.125-0.085-0.125-0.085s-0.063-0.069-0.053-0.149
	c0.012-0.079,0.085-0.114,0.127-0.181c0.042-0.064-0.04-0.176-0.071-0.216c-0.033-0.042,0.095-0.17,0.095-0.17
	s-0.132,0.074-0.135,0.007c-0.004-0.068-0.187-0.104-0.187-0.104c-0.065,0.011-0.13,0.021-0.196,0.031c0,0-0.151,0.007-0.197,0.003
	c-0.046-0.001-0.199,0.004-0.199,0.004c-0.087-0.004-0.175-0.009-0.262-0.014c0,0-0.138,0.021-0.433,0.046
	c-0.297,0.026-0.315,0.011-0.363,0.01c-0.046-0.003-0.155,0.018-0.155,0.018s-0.192,0.018-0.254,0.056
	c-0.063,0.037-0.078,0.078-0.142,0.074c-0.064-0.003-0.127,0.008-0.255,0.057c-0.128,0.046,0,0-0.046,0.05
	c-0.034,0.039-0.052,0.056-0.09,0.056c-0.015,0-0.033-0.003-0.056-0.007c-0.082-0.019-0.082-0.032-0.131-0.048
	c-0.05-0.016-0.099-0.005-0.164-0.007c-0.066-0.003-0.147-0.009-0.214-0.01c-0.067-0.004-0.167-0.065-0.167-0.065
	s-0.071-0.098-0.188-0.119s-0.098,0.05-0.098,0.05s-0.014,0.068-0.03,0.122c-0.017,0.055-0.081,0.121-0.079,0.189
	c0.002,0.07-0.132,0.061-0.165,0.116c-0.033,0.054-0.117,0.049-0.218,0.087c-0.101,0.035-0.186,0.018-0.252,0.111
	c-0.067,0.095-0.152,0.16-0.169,0.229c-0.016,0.068-0.085,0.092-0.083,0.176c0.001,0.084,0.039,0.181,0.039,0.181
	c-0.006,0.038-0.011,0.074-0.017,0.111c0,0-0.136,0.092-0.136,0.188c0.002,0.098-0.26,0.074-0.26,0.074s-0.193,0.076-0.246,0.13
	c-0.052,0.053-0.194,0.077-0.247,0.09c-0.001,0-0.001,0-0.003,0c-0.048,0.017,0.036,0.183-0.246,0.299
	c-0.287,0.116-0.287,0.342-0.323,0.396c-0.038,0.055-0.055,0.083-0.127,0.151c-0.074,0.069-0.109,0.209-0.109,0.209
	s-0.183,0.164-0.257,0.276c-0.075,0.112-0.055,0.055-0.075,0.155c-0.018,0.099,0.037,0.1,0.077,0.17
	c0.035,0.072,0.017,0.058,0.108,0.086c0.093,0.03,0,0.185,0,0.312c0,0.127,0.02,0.07,0.02,0.199c0,0.126-0.037,0.168-0.037,0.322
	c0,0.05,0,0.082,0,0.107c-0.005,0.053-0.011,0.063-0.037,0.091c-0.036,0.042-0.166,0.24-0.167,0.24c0,0-0.038,0.084-0.038,0.157
	c0,0.071,0,0.084,0,0.169s0,0-0.036,0.127c-0.039,0.129,0,0-0.019,0.099c-0.02,0.101,0.129,0.169,0.129,0.169s0,0,0.01,0.011
	c0.01,0.01,0.026,0.031,0.066,0.072c0.073,0.084,0.238,0.04,0.238,0.04c-0.04,0.085,0.061,0.137,0.116,0.157
	c0.018,0.007,0.03,0.011,0.03,0.011s0.075,0.111,0.146,0.152c0.073,0.042,0.055,0.07,0.165,0.138
	c0.066,0.042,0.111,0.117,0.137,0.167c0.016,0.033,0.024,0.055,0.024,0.055s0,0.125,0,0.167c0,0.042,0.126,0.109,0.181,0.15
	c0.052,0.04,0.088,0.054,0.212,0.107c0.031,0.011,0.053,0.024,0.071,0.038c0.056,0.041,0.069,0.082,0.124,0.124
	c0.07,0.054,0.386,0.254,0.386,0.254s0.191,0.091,0.329,0.185c0.138,0.091,0.189,0.034,0.189,0.034
	c0.015-0.001,0.03-0.004,0.044-0.006c0.048-0.008,0.097-0.017,0.146-0.026c0,0,0.172-0.087,0.223-0.087
	c0.051-0.004,0.12-0.073,0.306-0.079c0.186-0.005,0.236-0.006,0.387-0.01c0.151-0.005,0.066,0.039,0.165,0.077
	c0.059,0.022,0.117,0.017,0.156,0.007c0.026-0.005,0.042-0.011,0.042-0.011c0.058-0.022,0.111-0.041,0.167-0.06
	c0,0,0.131-0.031,0.182-0.06c0.05-0.029,0.149-0.085,0.23-0.086c0.081-0.002,0.099-0.07,0.196-0.071
	c0.097-0.003,0.1-0.083,0.1-0.083s0.022-0.004,0.055-0.009c0.065-0.011,0.172-0.029,0.235-0.038c0.004,0,0.01-0.001,0.013-0.001
	c0.094-0.014,0.202-0.004,0.323-0.006c0.126-0.003,0.111,0.05,0.281,0.153c0.171,0.102,0.028,0.106,0.012,0.226
	c-0.02,0.12,0.044,0.104,0.153,0.102c0.11-0.004,0.22-0.059,0.313-0.063c0.093-0.002,0.311-0.086,0.311-0.086
	c0,0,0.002,0.002,0.002,0.002c0.034,0.043,0.067,0.083,0.101,0.125c0,0,0.077,0.052,0.178,0.207c0.073,0.11,0.039,0.177,0,0.235
	c-0.015,0.023-0.031,0.046-0.041,0.068c-0.022,0.054-0.051,0.139-0.069,0.211c-0.01,0.036-0.015,0.07-0.018,0.096
	c-0.002,0.079-0.111,0.15-0.151,0.351c-0.032,0.168,0.221,0.457,0.448,0.657c0.042,0.038,0.084,0.074,0.124,0.103
	c0.057,0.044,0.097,0.095,0.124,0.152c0.035,0.067,0.053,0.142,0.063,0.215c0.02,0.126,0.02,0.255,0.058,0.358
	c0.078,0.209,0.224,0.23,0.134,0.235c-0.089,0.004-0.049,0.324,0.035,0.375c0.086,0.049,0.094,0.374-0.101,0.631
	c-0.169,0.22-0.359,0.728-0.443,1.046c-0.014,0.052-0.024,0.099-0.031,0.137c-0.05,0.279,0.456,1.182,0.452,1.183
	c0.002-0.001,0.088,0.596,0.062,0.86c-0.021,0.22,0.173,0.471,0.249,0.599c0.015,0.025,0.025,0.044,0.027,0.06
	c0.021,0.087-0.004,0.326,0.166,0.587c0.17,0.264-0.112,0.488,0.05,0.818c0.159,0.331,0.316,0.204,0.562,0.038
	c0.245-0.164,0.369-0.015,0.483-0.02c0.113-0.004,0.385-0.169,0.553-0.176c0.169-0.006,0.146-0.284,0.495-0.42
	c0.349-0.136,0.414-0.233,0.503-0.54c0.088-0.306,0.291-0.403,0.5-0.563c0.182-0.138,0.188-0.199,0.131-0.389
	c-0.008-0.027-0.018-0.058-0.027-0.091c-0.084-0.261,0.477-0.43,0.477-0.43c0.095-0.003,0.176-0.14,0.229-0.428
	c0.052-0.291,0.041-0.475-0.106-0.639c-0.149-0.162,0.07-0.214,0.171-0.275c0.098-0.061,0.185-0.133,0.272-0.22
	c0.088-0.087,0.122-0.186,0.179-0.243c0.058-0.058,0.29-0.135,0.362-0.194c0.07-0.058,0.208-0.145,0.31-0.285
	c0.103-0.141,0.117-0.154,0.087-0.303c-0.029-0.148,0.01-0.149,0.029-0.444c0.018-0.295,0.048-0.348,0.048-0.348
	s-0.022-0.063-0.05-0.149c-0.034-0.106-0.075-0.246-0.092-0.347c-0.028-0.183,0.013-0.263-0.033-0.34
	c-0.049-0.076-0.07-0.152-0.075-0.334c-0.004-0.176,0.116-0.074,0.127-0.2c0-0.004,0-0.007,0-0.01
	c0.007-0.142,0.022-0.193,0.104-0.247c0.082-0.052-0.016-0.229,0.089-0.257c0.087-0.024,0.187-0.161,0.219-0.207
	c0.006-0.01,0.011-0.016,0.011-0.016s0.147-0.129,0.172-0.168c0.028-0.039,0.203-0.242,0.242-0.318
	c0.042-0.077,0.237-0.206,0.277-0.243c0.04-0.039,0.166-0.052,0.193-0.103c0.026-0.051,0.208-0.276,0.273-0.313
	c0.065-0.039,0.194-0.213,0.247-0.324c0.052-0.111,0.08-0.234,0.233-0.492c0.154-0.259,0.184-0.779,0.271-0.89
	C34.165,20.696,34.028,20.746,34.028,20.746z M20.855,17.081c0.015,0,0.05,0.003,0.082,0.005c0.018,0,0.036,0.002,0.051,0.002
	C20.946,17.086,20.878,17.084,20.855,17.081z"/>
<path fill="#8EC549" d="M6.613,10.667c0,0,0.098-0.038,0.155-0.078c0.057-0.039,0.197-0.278,0.23-0.308
	c0.033-0.029-0.393,0.023-0.392,0.022c-0.052,0.071-0.194,0.279-0.235,0.326c-0.043,0.05-0.026,0.257-0.074,0.274
	c-0.047,0.019-0.145,0.235-0.209,0.292c-0.066,0.057-0.146,0.215-0.146,0.215c0.028,0.043,0.053,0.085,0.08,0.129
	c0.051-0.02,0.102-0.038,0.153-0.058c0.038-0.062,0.076-0.124,0.115-0.186c0.063-0.024,0.127-0.048,0.19-0.074
	c-0.011-0.047-0.02-0.098-0.031-0.148c0.005-0.062,0.009-0.122,0.014-0.185C6.514,10.816,6.564,10.741,6.613,10.667z"/>
<path fill="#8EC549" d="M9.336,10.877c0.065-0.028,0.242,0.036,0.283,0.112c0.041,0.075,0.059,0.098,0.147-0.032
	c0.09-0.131,0.012-0.176,0.232-0.286c0.222-0.111,0.303-0.224,0.045-0.24c-0.256-0.014-0.218-0.047-0.404-0.063
	c-0.184-0.016-0.327,0.124-0.353,0.04c-0.029-0.083,0.285-0.202,0.285-0.202S9.792,10,9.618,10.057
	c-0.171,0.059-0.5,0.086-0.344,0.019C9.428,10.011,9.149,10,9.149,9.999c-0.02-0.041-0.04-0.082-0.061-0.124
	c0,0.002-0.245,0.023-0.198-0.028c0.047-0.054-0.208-0.012-0.16-0.051c0.048-0.037,0.086-0.152,0.048-0.135
	c-0.04,0.017-0.293-0.027-0.458,0.058C8.159,9.804,8.281,9.97,8.345,9.942c0.064-0.026,0.167,0.014,0.167,0.014
	s-0.139,0.073-0.176,0.091c-0.038,0.016-0.298,0.156-0.298,0.156c0.028-0.045,0.057-0.088,0.085-0.134
	c0.028-0.05,0.055-0.099,0.084-0.15c-0.008-0.037-0.014-0.073-0.021-0.11C8.107,9.848,8.027,9.888,7.948,9.926
	c-0.065,0.033-0.132,0.066-0.197,0.097c-0.042,0.042-0.084,0.081-0.127,0.121C7.653,10.07,7.68,9.999,7.707,9.926
	c-0.046,0.063-0.094,0.127-0.139,0.191c-0.045,0.054,0.036,0.497-0.013,0.516c-0.05,0.02-0.172-0.143-0.172-0.143
	s0.081-0.131,0.097-0.188c0.018-0.058-0.157-0.134-0.157-0.136c-0.088,0.107-0.173,0.214-0.258,0.321
	c-0.051,0.059-0.1,0.117-0.15,0.175c0.007,0.063,0.015,0.125,0.022,0.187c0.074-0.023,0.148-0.047,0.223-0.072
	c-0.073,0.055-0.146,0.111-0.216,0.167c0.009,0.033,0.021,0.066,0.032,0.098c0.061-0.023,0.121-0.047,0.182-0.071
	c0,0,0.279-0.047,0.486-0.133c0.211-0.085,0.41-0.167,0.41-0.167c0.031-0.052,0.062-0.102,0.092-0.152c0,0,0.282-0.003,0.329,0.105
	c0.045,0.109,0.232,0.094,0.249,0.196c0.02,0.103-0.043,0.208-0.153,0.271c-0.111,0.06-0.158,0.313-0.158,0.313
	s0.002,0.089-0.085,0.127c-0.086,0.036-0.26,0.03-0.314,0.083c-0.057,0.054-0.17,0.146-0.169,0.146c0,0-0.187,0.318-0.054,0.265
	c0.133-0.054,0.088-0.082,0.174-0.116c0.084-0.034,0.421-0.278,0.491-0.049c0.068,0.227,0.244,0.168,0.322,0.152
	c0.077-0.018,0.312,0.018,0.304-0.024c-0.006-0.042,0.187-0.092-0.01-0.205c-0.196-0.113-0.108-0.226,0.002-0.135
	c0.111,0.087,0.24,0.124,0.292-0.047c0.052-0.174,0.221-0.23,0.035-0.351s-0.199-0.193-0.199-0.193S9.271,10.904,9.336,10.877z"/>
<path fill="#8EC549" d="M10.16,13.824c-0.215,0.101-0.215,0.099-0.215,0.1c0.006,0.007,0.012,0.014,0.018,0.021
	c0,0-0.16,0.159-0.21,0.301C9.7,14.384,9.641,14.487,9.56,14.546c-0.082,0.06-0.129,0.381-0.129,0.379c0,0-0.002,0.002,0.298-0.116
	c0.3-0.117,0.429-0.247,0.428-0.247c0.016,0.034,0.034,0.067,0.048,0.1c0.051,0.006,0.099,0.014,0.148,0.021
	c0,0,0.091-0.036,0.135-0.092c0.043-0.058,0.04-0.136,0.04-0.136c-0.014-0.018-0.027-0.034-0.04-0.05
	c-0.011-0.045-0.021-0.09-0.031-0.135c-0.005-0.046-0.011-0.093-0.018-0.139c0,0-0.159-0.017-0.24,0.056
	c-0.083,0.073-0.133,0.04-0.133,0.04c0.023-0.045,0.046-0.09,0.068-0.134c0,0-0.145,0.014-0.196,0.046
	C10.011,14.07,10.348,13.736,10.16,13.824z"/>
<path fill="#8EC549" d="M6.319,9.58c0.056-0.028,0.113-0.057,0.169-0.086c0.017,0.024,0.035,0.045,0.053,0.067
	c0.042-0.012,0.084-0.023,0.125-0.034C6.662,9.466,6.654,9.405,6.646,9.344C6.6,9.333,6.554,9.322,6.506,9.312
	C6.461,9.33,6.415,9.348,6.369,9.366C6.294,9.415,6.22,9.461,6.145,9.509c0.047-0.001,0.096-0.003,0.146-0.006
	C6.299,9.529,6.31,9.556,6.319,9.58z"/>
<path fill="#8EC549" d="M6.239,10.299c0.072-0.028,0.168-0.017,0.18-0.088c0.011-0.072,0.02-0.161,0.02-0.161
	c0.007-0.049,0.016-0.098,0.023-0.147c-0.068,0.012-0.136,0.021-0.205,0.03c0.003,0.038,0.007,0.078,0.011,0.117
	c0,0-0.027,0.195-0.052,0.138c-0.024-0.058-0.061-0.232-0.091-0.187C6.095,10.05,6,10.223,6,10.223
	c0.023,0.046,0.047,0.094,0.069,0.143C6.069,10.365,6.166,10.327,6.239,10.299z"/>
<path fill="#8EC549" d="M5.537,11.128c0.053,0.012,0.107,0.025,0.162,0.037c0,0-0.037,0.176,0.104,0.123
	c0.141-0.052,0.123-0.144,0.123-0.144s0.171-0.097,0.227-0.134c0.057-0.037-0.027-0.252-0.027-0.252
	c0.037-0.013,0.073-0.027,0.109-0.041c0,0,0.112-0.209,0.072-0.279c-0.039-0.068-0.168,0.132-0.227,0.156
	c-0.062,0.024-0.181,0.069-0.181,0.069c-0.029,0.039-0.061,0.077-0.091,0.117c-0.004,0.062-0.009,0.123-0.011,0.185
	c0,0,0,0-0.12-0.021C5.555,10.925,5.537,11.128,5.537,11.128z"/>
<path fill="#8EC549" d="M17.563,4.47c-0.281,0.083-0.502,0.186-0.57,0.218c-0.064,0.031-0.342,0.131-0.371,0.142
	c-0.03,0.008,0.145-0.115,0.001-0.146c-0.013-0.002-0.025-0.005-0.037-0.008c0-0.003,0-0.004,0.002-0.006
	c0,0-0.069-0.078-0.085-0.084c-0.017-0.005-0.107-0.005-0.107-0.005c-0.035-0.02-0.07-0.038-0.104-0.058c0,0-0.14,0.068-0.166,0.069
	c-0.026,0.004-0.115,0.01-0.146,0.008c-0.032,0-0.159-0.007-0.159-0.007c-0.042,0.033-0.083,0.063-0.125,0.095
	c-0.01-0.017-0.021-0.032-0.03-0.049c-0.033,0.013-0.067,0.026-0.099,0.039c-0.051,0.01-0.103,0.02-0.153,0.029
	c-0.03,0.018-0.061,0.036-0.091,0.054c0-0.003-0.001-0.007-0.002-0.012c-0.029,0.009-0.057,0.017-0.086,0.024
	c-0.042,0.022-0.082,0.045-0.122,0.066c-0.049,0.021-0.096,0.042-0.146,0.062c-0.012-0.01-0.023-0.019-0.035-0.029
	c-0.046,0.007-0.09,0.015-0.135,0.023c-0.044,0.034-0.09,0.068-0.133,0.102c-0.027,0.02-0.056,0.04-0.083,0.059
	c-0.017-0.007-0.035-0.014-0.054-0.021c-0.06,0.021-0.119,0.042-0.178,0.064c-0.018,0.029-0.035,0.057-0.051,0.085
	c-0.013-0.007-0.027-0.014-0.041-0.022c-0.047,0.017-0.095,0.03-0.142,0.048c-0.024,0.029-0.049,0.059-0.073,0.087
	c-0.036,0.037-0.073,0.071-0.108,0.109c-0.025-0.001-0.051-0.001-0.075-0.002c-0.052,0.024-0.103,0.047-0.155,0.07
	c-0.02,0.001-0.039,0.001-0.057,0.003c-0.039,0.051-0.076,0.103-0.114,0.154c-0.019,0.007-0.042,0.013-0.061,0.018
	c-0.027,0.022-0.055,0.045-0.082,0.069c-0.034,0.012-0.068,0.023-0.101,0.033c-0.011-0.008-0.021-0.018-0.031-0.026
	c-0.037,0.036-0.072,0.071-0.108,0.106C13.1,5.867,13.048,5.9,12.996,5.932C12.963,5.99,12.932,6.045,12.9,6.103
	c-0.052,0.03-0.105,0.059-0.157,0.087c0,0,0.124-0.111-0.167,0.005c-0.292,0.119-0.482,0.195-0.56,0.227
	c-0.08,0.032-0.309,0.215-0.323,0.258c-0.015,0.045-0.223,0.144-0.223,0.144c-0.002,0-0.811,0.54-0.638,0.505
	c0.17-0.033,0.256,0.067,0.031,0.162c-0.224,0.095-0.417,0.336-0.703,0.46C9.871,8.072,9.717,8.325,9.974,8.215
	c0.257-0.11,0.568-0.218,0.568-0.218c-0.003,0.001-0.685,0.477-0.389,0.422s0.244,0.003,0.464-0.091
	c0.222-0.094,0.257-0.29,0.518-0.27c0.259,0.022,0.305-0.022,0.337,0.13c0.033,0.152,0.164,0.271,0.082,0.424
	c-0.082,0.15-0.264,0.251-0.264,0.251s-0.026,0.174,0.156,0.073c0.183-0.102,0.29-0.298,0.31-0.227
	c0.023,0.072,0.172,0.224,0.172,0.224s-0.203-0.016-0.311,0.031c-0.108,0.046-0.235,0.16-0.109,0.173
	c0.127,0.013,0.339-0.044,0.368-0.058c0.03-0.012-0.025,0.17-0.103,0.214c-0.078,0.045-0.334,0.269-0.334,0.269
	s-0.23,0.257-0.168,0.506c0.061,0.247,0.1,0.296,0.134,0.431c0.035,0.137,0.011,0.423,0.114,0.463
	c0.101,0.042,0.117,0.128,0.272,0.104c0.154-0.025,0.254-0.079,0.283-0.092c0.03-0.013,0.064,0.047,0.125,0.082
	c0.061,0.036,0.121,0.011,0.293-0.063c0.045-0.063,0.093-0.125,0.14-0.186c0.056-0.108,0.142-0.347,0.142-0.347
	s0.091-0.156,0.056-0.228c-0.036-0.069-0.001,0.056,0.18-0.163c0.181-0.218,0.22-0.255,0.2-0.354
	c-0.019-0.099-0.071-0.142-0.03-0.161c0.042-0.019,0.093-0.16,0.259-0.23c0.166-0.073,0.103,0.074,0.425-0.205
	c0.321-0.279,0.319-0.289,0.471-0.452c0.15-0.162,0.004-0.154,0.217-0.29c0.215-0.135,0.199-0.105,0.422-0.254
	c0.226-0.149,0.308-0.258,0.403-0.299c0.095-0.04,0.434-0.321,0.74-0.52c0.306-0.199,0.247-0.153,0.192-0.131
	c-0.055,0.02-0.503,0.115-0.632,0.158c-0.131,0.042,0.088-0.18,0.087-0.18c0,0,0.152-0.149,0.179-0.082
	c0.027,0.065,0.085,0.118,0.28,0.041c0.194-0.079,0.314-0.158,0.18-0.224c-0.134-0.067-0.121-0.069-0.214-0.11
	c-0.091-0.042-0.109-0.023-0.237-0.027c-0.127-0.005-0.258-0.03-0.205-0.051c0.053-0.022,0.172-0.101,0.34-0.167
	c0.169-0.066,0.223-0.086,0.307-0.118c0.083-0.032,0.214-0.016,0.21-0.081c-0.002-0.041-0.07-0.049-0.128-0.045
	c0.078-0.022,0.193-0.065,0.256-0.132c0.11-0.118,0.209-0.219,0.063-0.165c-0.145,0.053,0.101-0.145,0.101-0.145
	c0,0,0.079-0.182-0.139-0.102c-0.216,0.08-0.398,0.012-0.151-0.077c0.248-0.09,0.411-0.189,0.356-0.192
	c-0.058-0.001-0.37-0.011-0.369-0.011c0,0-0.022-0.062,0.328-0.291c0.35-0.227,0.388-0.398,0.478-0.427
	c0.089-0.027,0.157-0.091,0.28-0.139c0.126-0.049,0.183-0.138,0.183-0.138S17.842,4.389,17.563,4.47z"/>
<path fill="#8EC549" d="M17.184,7.6c-0.131,0.105-0.132,0.064-0.254,0.113c-0.123,0.05-0.179,0.073-0.246,0.143
	c-0.066,0.071-0.164,0.121-0.252,0.157c-0.09,0.037-0.053-0.052-0.147-0.079c-0.091-0.026-0.436,0.29-0.376,0.329
	c0.059,0.041,0.185-0.087,0.339-0.153c0.155-0.064-0.008,0.067-0.04,0.082c-0.034,0.014-0.227,0.211-0.227,0.211
	c0.095-0.016,0.188-0.034,0.282-0.052c-0.037,0.052-0.077,0.11-0.116,0.166c0,0,0.221-0.104,0.276-0.085
	c0.057,0.02,0.228,0,0.33-0.042c0.103-0.042,0.216-0.089,0.216-0.132c0-0.043,0.24-0.215,0.427-0.312
	c0.188-0.099,0.31-0.347,0.309-0.347C17.635,7.47,17.313,7.492,17.184,7.6z"/>
<path fill="#8EC549" d="M6.565,10.219c0,0,0.142-0.073,0.195-0.077c0.051-0.004,0.157-0.081,0.157-0.081S6.921,9.875,6.86,9.898
	c-0.063,0.025-0.193,0.111-0.193,0.111C6.634,10.08,6.6,10.15,6.565,10.219z"/>
<path fill="#8EC549" d="M7.273,20.851c0,0-0.264-0.117-0.603-0.199c-0.337-0.082-0.339-0.014-0.43-0.055
	c-0.089-0.042-0.081-0.055-0.213-0.005c-0.128,0.047-0.237,0.168-0.273,0.234c-0.037,0.065-0.014,0.103-0.014,0.103
	c0.03-0.009,0.232-0.188,0.297-0.196c0.064-0.007,0.057,0.083,0.139,0.059c0.083-0.021,0.202-0.035,0.258,0.006
	c0.056,0.04,0.152-0.055,0.152-0.055s0.092,0.084,0.07,0.126c-0.021,0.039,0.116,0.011,0.116,0.011s0.025,0.083-0.004,0.102
	C6.739,21.001,7.125,20.971,7.273,20.851z"/>
<path fill="#8EC549" d="M16.487,24.487c-0.121-0.13,0.033-0.257-0.165-0.237c-0.194,0.021-0.121,0.103-0.414,0.003
	c-0.292-0.098-0.428-0.181-0.506-0.212c-0.077-0.031-0.341-0.176-0.453-0.171c-0.111,0.004-0.159,0.009-0.278,0.023
	c-0.119,0.015-0.209,0.066-0.305,0.039c-0.096-0.026-0.295-0.136-0.454,0.066c-0.023,0.032-0.041,0.056-0.052,0.075
	c-0.013-0.057-0.033-0.147-0.056-0.203c-0.034-0.089-0.046-0.089-0.262-0.135c-0.215-0.046-0.342-0.084-0.449-0.097
	c-0.105-0.012-0.186,0.037-0.22,0.097c-0.011,0.022-0.027,0.048-0.042,0.072c0.022-0.046,0.036-0.104,0.002-0.149
	c-0.068-0.092-0.148-0.072-0.219-0.061c-0.074,0.011-0.243,0.019-0.243,0.019s-0.134-0.071-0.028-0.133
	c0.105-0.062,0.119-0.082,0.077-0.168c-0.042-0.084,0.024-0.021-0.15-0.085c-0.173-0.062-0.123-0.097-0.188-0.186
	c-0.064-0.089-0.19-0.229-0.19-0.229c-0.028-0.01-0.056-0.02-0.084-0.03c-0.013-0.003-0.023-0.007-0.035-0.012
	c-0.001,0-0.41-0.155-0.493-0.139c-0.01,0.001-0.021,0.003-0.033,0.004c-0.086,0.004-0.21-0.021-0.324,0.001
	c-0.131,0.026-0.221,0.044-0.221,0.044s-0.008-0.005-0.021-0.013c-0.057-0.032-0.216-0.121-0.271-0.104
	c-0.068,0.023-0.226-0.27-0.355-0.233c-0.004,0.001-0.008,0.001-0.012,0.002c-0.126,0.031-0.265-0.002-0.265-0.002
	c0,0,0.125-0.121,0.059-0.155c-0.069-0.037-0.064,0.003-0.193-0.026c-0.13-0.032-0.324-0.052-0.183-0.085
	c0.143-0.033,0.102-0.048,0.1-0.048c-0.127,0.013-0.255,0.026-0.38,0.038c0,0-0.049,0.121-0.11,0.15
	c-0.061,0.03-0.144-0.066-0.256-0.039c-0.114,0.026-0.104,0.082-0.208,0.106c-0.103,0.023-0.124-0.068-0.124-0.068
	s-0.05-0.072-0.103-0.057c-0.056,0.012-0.189,0.046-0.242,0.06c-0.055,0.013-0.221,0.176-0.124,0.249
	c0.099,0.076,0.185,0.162,0.106,0.18c-0.077,0.019-0.168,0.017-0.191-0.084c-0.025-0.1,0.07-0.199,0.003-0.253
	c-0.034-0.029-0.052-0.048-0.056-0.062c-0.005-0.017,0.004-0.028,0.022-0.044c0.04-0.035,0.083-0.079,0.083-0.079
	s0.047-0.093-0.054-0.043c-0.1,0.05-0.1,0.05-0.13,0.106c-0.033,0.057-0.05,0.109-0.126,0.129c-0.074,0.02-0.089,0.055-0.084,0.094
	c0.002,0.041-0.028,0.073-0.028,0.073s-0.063-0.13-0.095-0.073c-0.031,0.057-0.157,0.098-0.131,0.181
	c0.024,0.083,0.061,0.204,0.061,0.204s-0.206,0.068-0.167,0.19c0.036,0.123-0.061,0.229-0.061,0.229s0.099-0.264-0.062-0.313
	c-0.159-0.047-0.145-0.084-0.262-0.044c-0.115,0.04-0.092,0.147-0.172,0.169c-0.028,0.008-0.044,0.021-0.062,0.03
	c-0.029,0.02-0.063,0.029-0.184-0.028c-0.163-0.078-0.167-0.064-0.188-0.128C6.213,22.88,6.138,22.841,6.11,22.85
	c-0.035,0.009-0.043-0.015-0.109,0.004c-0.06,0.018-0.162,0.016-0.172,0.037c0.034,0.086,0.09,0.24,0.218,0.24
	c0.173-0.001,0.162,0.011,0.224,0.067c0.065,0.055,0.096,0.054,0.175,0.032c0.082-0.021,0.216-0.002,0.237,0.068
	c0.019,0.069,0.197,0.079,0.137-0.021c-0.033-0.053-0.061-0.058-0.075-0.061c-0.001-0.002-0.004-0.005-0.006-0.008
	c0.002-0.005,0.008-0.013,0.02-0.03c0.051-0.071,0.049-0.103,0.081-0.128c0.033-0.025,0.125-0.091,0.175-0.03
	c0.051,0.061,0.074,0.137,0.084,0.175c0.012,0.037,0.099,0.057,0.13,0.106c0.031,0.047,0.153,0.511,0.165,0.543
	c0.009,0.033,0.057,0.188-0.031,0.247c-0.09,0.057-0.129,0.059-0.096,0.145s0.064,0.052,0.034,0.086
	c-0.003,0.003-0.007,0.008-0.01,0.014c-0.023,0.039-0.039,0.112-0.072,0.12c-0.039,0.01-0.134,0.018-0.065,0.141
	c0.069,0.121,0.016,0.162,0,0.191c-0.016,0.03-0.041,0.055,0.004,0.176c0.043,0.121,0.078,0.264,0.176,0.203
	c0.097-0.061,0.048,0.086,0.048,0.14c0,0.024-0.048,0.041-0.043,0.061c-0.022,0.042-0.034,0.127,0.035,0.352
	c0.015,0.052-0.044,0.195,0.102,0.206c0.146,0.009,0.233,0.051,0.365,0.207c0.132,0.156,0.264,0.305,0.346,0.49
	c0.082,0.181,0.287,0.311,0.366,0.4C8.635,27.112,8.7,27.205,8.7,27.205s0.075,0.152,0.274,0.249c0.2,0.098,0.329,0.164,0.439,0.201
	c0.112,0.037,0.285-0.016,0.378,0.077c0.097,0.093,0.222,0.223,0.282,0.232c0.013,0.002,0.024,0.01,0.037,0.017
	c0.048,0.03,0.094,0.084,0.096,0.05c0.004-0.044,0.376,0.828,0.48,1.129c0.099,0.292,0.472,1.206,0.473,1.209
	c0,0,0.261,0.477,0.166,0.428c-0.095-0.052,0.093,0.153,0.144,0.25c0.052,0.094,0.067,0.079,0.136,0.277
	c0.066,0.198,0.188,0.494,0.224,0.596c0.035,0.099,0.183,0.593,0.183,0.593s-0.137,0.007,0.01,0.171
	c0.146,0.164,0.34,0.231,0.379,0.371c0.039,0.141-0.039,0.298,0.092,0.417c0.133,0.119,0.15,0.32,0.216,0.302
	c0.065-0.016,0.026,0.108,0.117,0.278c0.088,0.17,0.149,0.231,0.171,0.172c0.021-0.056-0.066-0.188-0.118-0.316
	c-0.055-0.126-0.099-0.254-0.04-0.231c0.06,0.024,0.157,0.189,0.173,0.236s0.083,0.183,0.152,0.318
	c0.067,0.137,0.114,0.305,0.114,0.305c-0.007,0.049-0.014,0.1-0.021,0.147c0,0-0.114-0.032-0.085,0.052
	c0.028,0.083,0.054,0.274,0.054,0.274s0.163-0.035,0.223-0.041c0.061-0.004,0.137-0.052,0.148-0.017
	c0.013,0.036,0.009,0.233-0.038,0.248c-0.047,0.013-0.043,0.239-0.043,0.239s0.189,0.22,0.257,0.265
	c0.067,0.046,0.259,0.181,0.28,0.241c0.001,0,0.001,0.003,0.001,0.004c0.009,0.005,0.032,0.03,0.087,0.1
	c0.147,0.19,0.246,0.234,0.246,0.234s0.039-0.04,0.105,0.031c0.065,0.07,0.182,0.108,0.182,0.108s0.032,0.067,0.069,0.081
	c0.035,0.012,0.136,0.03,0.136,0.03c0,0.001,0.249,0.146,0.286,0.133c0.036-0.013,0.177-0.063,0.267-0.043
	c0.09,0.02,0.236,0.02,0.292,0.001c0.046-0.016,0.217-0.065,0.276-0.082c0.012-0.003,0.019-0.005,0.019-0.005
	s0.074-0.061,0.103-0.068c0.028-0.01,0.1-0.045,0.152-0.048c0.05-0.004,0.157-0.036,0.157-0.036
	c0.051-0.044,0.103-0.086,0.155-0.128c-0.052,0-0.521,0.195-0.894-0.106c-0.375-0.304-0.203-0.221-0.427-0.354
	c-0.223-0.135-0.367-0.219-0.251-0.278c0.116-0.057,0.126,0.002,0.079-0.194c-0.046-0.198-0.085-0.249-0.016-0.291
	c0.069-0.042,0.128,0.064,0.039-0.192s-0.164-0.229-0.271-0.203c-0.108,0.024-0.216,0.015-0.321-0.133
	c-0.103-0.149-0.127-0.302,0.002-0.354c0.127-0.053,0.112-0.192,0.091-0.249c-0.02-0.055-0.155-0.053-0.071-0.202
	c0.084-0.147,0.185-0.189,0.053-0.236c-0.133-0.045-0.307,0-0.348-0.087c-0.041-0.088-0.368-0.241-0.128-0.274
	c0.241-0.031,0.377,0.085,0.412-0.025c0.034-0.111,0.08-0.13-0.033-0.24c-0.114-0.109-0.34-0.27-0.24-0.286
	c0.097-0.017,0.621-0.015,0.706-0.205c0.082-0.19,0.074-0.277,0.026-0.405c-0.045-0.128-0.097-0.089-0.227-0.208
	c-0.13-0.118,0.121-0.168-0.071-0.226c-0.195-0.055-0.338-0.038-0.379-0.122c-0.015-0.028-0.012-0.042,0.006-0.048
	c0.035-0.01,0.127,0.01,0.273,0.017c0.22,0.008,0.29,0.144,0.459,0.06c0.167-0.082,0.279-0.081,0.316-0.193
	c0.001-0.001,0.001-0.005,0.002-0.008c0.032-0.12-0.019-0.436-0.05-0.58c-0.031-0.148,0.003-0.332,0.003-0.332
	s0.107,0.046,0.097,0.175c-0.008,0.128,0.051,0.018,0.069-0.187c0.016-0.201-0.031-0.262,0.086-0.385
	c0.117-0.123,0.129-0.155-0.021-0.304c-0.149-0.149-0.372-0.282-0.289-0.402c0.08-0.12,0.206-0.346,0.272-0.422
	c0.065-0.076,0.294-0.326,0.458-0.314c0.162,0.013,0.523,0.006,0.523-0.024c0.001-0.032-0.157-0.149,0.005-0.155
	c0.163-0.008,0.147-0.08,0.147-0.08c-0.013-0.091-0.027-0.185-0.042-0.276c0,0,0.073-0.178,0.042-0.26
	c-0.031-0.081-0.051-0.162-0.093-0.273c-0.044-0.111,0.067-0.096,0.021-0.248s-0.268-0.754-0.354-0.969
	c-0.085-0.218,0.092-0.099,0.151-0.051c0.057,0.045-0.025-0.029,0.019-0.185c0.045-0.157-0.008-0.193,0.015-0.266
	c0.024-0.073,0.1-0.12,0.216-0.23c0.119-0.112,0.218-0.243,0.124-0.48C16.682,24.73,16.608,24.615,16.487,24.487z"/>
<path fill="#8EC549" d="M14.056,35.95C14.041,35.938,14.065,35.979,14.056,35.95L14.056,35.95z"/>
<path fill="#8EC549" d="M33.559,26.027c-0.156-0.194-0.136-0.089-0.136-0.089s-0.048,0.201-0.052,0.282
	c-0.005,0.081-0.043,0.082-0.126,0.19c-0.085,0.112-0.138,0.154-0.21,0.264c-0.071,0.11-0.264,0.091-0.321,0.174
	c-0.056,0.084-0.244,0.158-0.317,0.256c-0.072,0.1-0.047,0.126-0.061,0.321s0.025,0.207,0.092,0.373
	c0.067,0.168-0.072,0.101-0.178,0.29c-0.107,0.188-0.13,0.146-0.208,0.32c-0.08,0.175,0.024,0.186,0.073,0.241
	c0.049,0.057-0.012,0.16-0.049,0.292c-0.038,0.133-0.008,0.103,0.138,0.273c0.146,0.174,0.279-0.008,0.374-0.011
	c0.092-0.003,0.222-0.138,0.22-0.138c0.219-0.583,0.432-1.151,0.637-1.703c0.004-0.014,0.01-0.027,0.016-0.042
	c-0.016-0.166-0.024-0.261,0.106-0.264c0.128-0.004,0.044-0.112,0.044-0.112c0,0-0.049-0.038-0.055-0.189
	c-0.005-0.15,0.127,0.051,0.167,0.023c0.04-0.029,0.037-0.193,0.022-0.408C33.719,26.156,33.715,26.224,33.559,26.027z"/>
<path fill="#8EC549" d="M4.304,10.943c0.091-0.047,0.447-0.107,0.322-0.045c-0.126,0.06-0.222,0.141-0.182,0.145
	c0.039,0.002,0.221-0.093,0.351-0.139c0.129-0.046,0.194-0.102,0.262-0.144c0.067-0.04,0.333-0.121,0.333-0.121
	c0.085-0.104,0.17-0.208,0.255-0.315c-0.086,0.022-0.173,0.042-0.259,0.064c0,0-0.004-0.135-0.065-0.112
	c-0.059,0.023-0.135,0.203-0.141,0.29C5.171,10.652,4.9,10.65,4.9,10.65c0.048-0.036,0.097-0.068,0.144-0.103
	c-0.103,0.003-0.206,0.007-0.307,0.01c0.042-0.037,0.083-0.076,0.126-0.112c-0.014,0.014-0.129,0.112-0.169,0.093
	c-0.043-0.018,0.021-0.177,0.021-0.177s-0.131,0.098-0.229,0.116c-0.073,0.014-0.129,0.039-0.201,0.067
	c-0.055,0.084-0.109,0.168-0.164,0.252c0.009-0.006,0.02-0.013,0.026-0.018c0.068-0.038,0.198-0.033,0.122,0.026
	c-0.075,0.059-0.115,0.107-0.158,0.136C4.068,10.971,4.213,10.989,4.304,10.943z"/>
<path fill="#8EC549" d="M4.149,11.336c0,0-0.112-0.14-0.155-0.16c-0.03-0.012-0.097,0.046-0.163,0.095
	c-0.098,0.164-0.193,0.329-0.285,0.496c0.212-0.157,0.483-0.293,0.51-0.303C4.087,11.421,4.118,11.38,4.149,11.336z"/>
<path fill="#8EC549" d="M7.669,16.747c0.01-0.002,0.018-0.007,0.018-0.007S7.681,16.742,7.669,16.747z"/>
<path fill="#8EC549" d="M37.321,18.538c-0.037,0.022-0.091,0.042-0.17,0.045c0.066,0.085,0.133,0.168,0.199,0.254
	C37.341,18.736,37.331,18.637,37.321,18.538z"/>
<path fill="#8EC549" d="M5.833,22.819c-0.027-0.024-0.086-0.112-0.049-0.115c0.04-0.004,0.042-0.004,0.099,0.037
	c0.056,0.038,0.077,0.057,0.139,0.08c0.06,0.023,0.125,0.031,0.108-0.025c-0.021-0.056-0.037-0.092-0.014-0.193
	c0.021-0.103-0.029-0.207-0.022-0.256c0.007-0.051,0.003-0.131,0.003-0.131c-0.012-0.044-0.044-0.091-0.074-0.13
	c-0.037-0.047-0.072-0.082-0.072-0.082s-0.07-0.052-0.27,0.014c-0.2,0.066-0.219,0.136-0.295,0.117
	c-0.009-0.003-0.02-0.003-0.03-0.001c-0.057,0.009-0.114,0.062-0.105,0.025c0.001-0.008,0.006-0.019,0.014-0.037
	c0.055-0.11,0.046-0.029,0.072-0.162c0.023-0.133-0.01-0.092,0.028-0.229c0.019-0.066,0.031-0.091,0.034-0.114
	c0.004-0.024,0-0.045-0.021-0.108c-0.035-0.123-0.021-0.158,0.005-0.229c0.027-0.07,0.101-0.216-0.085-0.163
	s-0.47,0.129-0.431,0.267s0.038,0.215-0.021,0.287c-0.057,0.072-0.075,0.116-0.053,0.143c0.023,0.023,0.02,0.096-0.072,0.044
	c-0.095-0.05-0.138,0.096-0.285,0.14c-0.147,0.043-0.09-0.092-0.192-0.061c-0.104,0.031-0.078,0.039-0.151-0.051
	c-0.072-0.088-0.18-0.103-0.227-0.263c-0.046-0.16-0.058-0.425-0.085-0.574c-0.028-0.15,0.031-0.166,0.021-0.225
	c-0.001-0.017-0.003-0.035-0.006-0.053c-0.001-0.057-0.003-0.125-0.015-0.185c-0.016-0.083-0.036-0.148,0.106-0.242
	c0.139-0.095,0.102-0.03,0.155-0.146c0.054-0.116-0.107-0.095,0.127-0.161c0.234-0.066,0.204-0.057,0.292-0.083
	c0.086-0.024,0.116-0.087,0.182-0.051c0.066,0.036,0.118,0.083,0.181,0.003c0.063-0.08,0.026-0.156,0.026-0.156
	s-0.104-0.089,0.171-0.105c0.276-0.016,0.229-0.183,0.317-0.091c0.089,0.091,0.135,0.142,0.185,0.073
	c0.051-0.069,0.021-0.171,0.105-0.093c0.085,0.076,0.208,0.071,0.203,0.136c-0.005,0.065,0.005,0.069,0.041,0.167
	c0.035,0.1,0.066,0.207,0.155,0.299c0.089,0.09,0.168,0.231,0.218,0.053c0.052-0.178,0.069-0.089,0.003-0.32
	c-0.067-0.231-0.147-0.402-0.154-0.425c-0.004-0.021-0.163-0.21,0.031-0.45c0.193-0.24,0.201-0.298,0.31-0.388
	c0.112-0.088,0.117-0.042,0.168-0.146c0.051-0.103,0.031-0.146,0.077-0.16c0.045-0.014,0.018-0.055,0.054-0.065
	c0.037-0.013,0.086-0.067,0.086-0.067c-0.009-0.034-0.017-0.065-0.026-0.098c-0.033,0.01-0.064,0.021-0.097,0.031
	c0.037-0.034,0.073-0.067,0.109-0.101c-0.012-0.027-0.026-0.057-0.039-0.085c0,0-0.121,0.031-0.093,0.014
	c0.026-0.017,0.119-0.07,0.104-0.124c-0.014-0.051-0.053-0.196-0.053-0.196s-0.045-0.324,0.029-0.075s0.054,0.352,0.128,0.174
	c0.074-0.179,0.032-0.249,0.031-0.249c0.028,0.001,0.056,0.004,0.085,0.005c-0.001,0,0.136-0.234,0.119-0.329
	c-0.018-0.097-0.036-0.073,0.119-0.151c0.155-0.076,0.217-0.165,0.28-0.186c0.046-0.016,0.121-0.042,0.153-0.053
	c-0.025,0.002-0.061-0.014-0.018-0.182c0.059-0.235,0.104-0.304,0.209-0.366c0.105-0.065,0.115-0.164,0.211-0.199
	c0.031-0.01,0.061-0.02,0.089-0.029c0.061-0.02,0.106-0.04,0.098-0.073c-0.006-0.028,0.007-0.056,0.034-0.084
	c0.02-0.023,0.048-0.045,0.082-0.065c0.078-0.047,0.133-0.119,0.188-0.149c0.055-0.029-0.178,0.118-0.238,0.274
	c-0.061,0.154,0.042,0.317,0.128,0.163c0.087-0.154,0.071-0.149,0.179-0.188c0.108-0.04,0.185-0.138,0.259-0.165
	c0.076-0.029,0.227-0.175,0.26-0.188c0.035-0.01,0.108-0.094,0.186-0.203c0.077-0.112,0.021-0.147-0.063-0.104
	c-0.085,0.042,0.011-0.16-0.024-0.146c-0.034,0.014-0.129,0.124-0.125,0.184c0.005,0.062-0.081,0.094-0.103,0.111
	c-0.025,0.018-0.097,0.064-0.176,0.075c-0.08,0.012-0.211,0.035-0.215-0.027c-0.004-0.06-0.028-0.159,0.022-0.215
	c0.05-0.056,0.053-0.047,0.089-0.125c0.038-0.078,0.173-0.286,0.005-0.223c-0.169,0.065-0.223,0.021-0.361,0.131
	c-0.137,0.106-0.23,0.24-0.294,0.265c-0.037,0.014-0.114,0.135-0.184,0.245c-0.042,0.063-0.08,0.124-0.106,0.153
	c-0.009,0.012-0.017,0.019-0.022,0.022c-0.055,0.029-0.1-0.018-0.1-0.018s0.044-0.069,0.122-0.143
	c0.08-0.074,0.093-0.159,0.18-0.237c0.087-0.079,0.083-0.096,0.135-0.141c0.052-0.048,0.131-0.124,0.132-0.124
	c0,0,0.077-0.056,0.104-0.093c0.028-0.04-0.007-0.118,0.058-0.143c0.067-0.025,0.305-0.137,0.408-0.169
	c0.104-0.029,0.277-0.135,0.33-0.146c0.054-0.011,0.2-0.079,0.243-0.096c0.043-0.017,0.067-0.036,0.165-0.159
	c0.098-0.126,0.071-0.152,0.317-0.271c0.249-0.121,0.313-0.147,0.315-0.273c0.004-0.127,0.019-0.19-0.015-0.225
	c-0.039-0.034-0.136,0.065-0.158-0.042c-0.022-0.11-0.097-0.039-0.187,0.046c-0.089,0.084-0.156,0.18-0.236,0.213
	c-0.08,0.033-0.211,0-0.066-0.089c0.144-0.088,0.176-0.122,0.269-0.189c0.095-0.066,0.065-0.063,0.151-0.12
	c0.087-0.056,0.083-0.073-0.06-0.052c-0.141,0.018-0.098,0.048-0.227,0.023c-0.131-0.022-0.255-0.022-0.245-0.116
	c0.009-0.093,0.047,0,0.07-0.178c0.022-0.176-0.214-0.711-0.214-0.714c0,0-0.103,0.26-0.245,0.411
	c-0.142,0.148-0.246,0.231-0.271,0.303c-0.022,0.069-0.067,0.127-0.104,0.032c-0.037-0.094-0.073-0.082-0.107-0.077
	c-0.037,0.005-0.27,0.09-0.032-0.159c0.24-0.25,0.12-0.151,0.104-0.237c-0.016-0.085-0.09-0.076-0.167-0.046
	c-0.076,0.033-0.115-0.014-0.139-0.098c-0.026-0.083-0.121-0.098-0.253-0.022c-0.131,0.075-0.214,0.17-0.279,0.154
	c-0.068-0.014-0.281-0.044-0.273,0.17c0.007,0.215-0.086,0.24-0.068,0.325c0.018,0.084,0.042,0.155-0.042,0.188
	c-0.082,0.031-0.292,0.253-0.148,0.346c0.144,0.093,0.154,0.101,0.143,0.211c-0.009,0.111-0.057,0.404-0.567,0.723
	c0,0-0.016,0.261,0.016,0.36c0.031,0.1,0.017,0.114-0.057,0.195c-0.073,0.082-0.042,0.144-0.127,0.174
	c-0.085,0.029-0.104,0.091-0.146-0.013s-0.068-0.004-0.073-0.131c-0.006-0.126-0.075-0.066,0.023-0.211
	c0.101-0.147-0.005-0.063,0.056-0.198c0.061-0.135,0.063-0.202,0.024-0.189c-0.041,0.016-0.39,0.109-0.388,0.109
	c0,0-0.07-0.11-0.193-0.067c-0.125,0.044-0.257-0.152-0.412-0.099c-0.156,0.052-0.279,0.121-0.279,0.121s0.084-0.191,0.057-0.3
	c-0.026-0.107-0.201-0.03-0.2-0.031c-0.001,0.006,0.29-0.886,0.74-1.05c0.072-0.026,0.221-0.245,0.058-0.196
	c-0.163,0.047,0.099-0.099,0.186-0.14c0.087-0.042,0.049-0.05,0.171-0.095c0.122-0.045-0.053,0.081,0.154-0.1
	c0.207-0.183,0.246-0.208,0.237-0.258c-0.011-0.048-0.148,0.056-0.235,0.025c-0.086-0.032-0.125-0.049-0.125-0.049
	s0.107-0.04,0.174-0.055c0.067-0.016,0.135-0.03,0.183-0.06c0.048-0.029,0.045,0.005,0.059-0.098
	c0.015-0.102,0.003-0.119,0.094-0.156c0.091-0.034,0.101-0.082,0.2-0.078c0.101,0.004-0.006-0.029,0.144-0.056
	c0.148-0.026-0.009,0.004,0.182-0.137c0.191-0.142,0.292-0.15,0.255-0.245c-0.037-0.097-0.23,0.005-0.085-0.154
	c0.145-0.16,0.225-0.137,0.193-0.202c-0.031-0.066-0.185-0.094-0.227-0.076c-0.044,0.018-0.098-0.027-0.189,0.077
	s-0.074,0.231-0.117,0.293c-0.043,0.062-0.102,0.042-0.162,0.152c-0.06,0.112-0.114,0.11-0.172,0.178
	c-0.059,0.067-0.004,0.067-0.059,0.067c-0.054,0-0.139-0.067-0.035-0.12c0.107-0.053,0.226-0.099,0.125-0.193
	c-0.101-0.094-0.19-0.136-0.255-0.01c-0.066,0.125-0.113,0.199-0.129,0.16c-0.017-0.037-0.05-0.28-0.086-0.188
	c-0.034,0.092-0.168,0.142-0.237,0.234c-0.07,0.093-0.186,0.137-0.231,0.21c-0.046,0.071-0.098,0.155-0.139,0.214
	c-0.04,0.058-0.012,0.144-0.043,0.156c-0.034,0.011-0.066,0.131-0.095,0.011c-0.028-0.12-0.059-0.14-0.141-0.112
	c-0.081,0.029-0.194,0.07-0.234,0.084c-0.041,0.014-0.065,0.023-0.157,0.077c-0.093,0.053-0.222,0.129-0.222,0.129
	s-0.08-0.146-0.233-0.094c-0.152,0.05-0.247,0.06-0.3,0.129c-0.051,0.072-0.112,0.133-0.11,0.207
	c0.001,0.074,0.008,0.166-0.038,0.15c-0.048-0.017-0.035-0.063-0.096-0.13c-0.062-0.066-0.032-0.085-0.161-0.045
	c-0.127,0.041-0.504,0.223-0.504,0.222c0,0-0.069-0.031,0.083-0.107c0.152-0.076,0.178-0.266-0.063-0.195
	c-0.245,0.07-0.282,0.154-0.358,0.102c-0.002-0.002-0.006-0.004-0.008-0.004c-1.136,2.346-1.779,4.976-1.796,7.754
	c0,0.039,0,0.08,0.001,0.119c0.069,0.042,0.067,0.122,0.105,0.216c0.047,0.12,0.065,0.262,0.133,0.301
	c0.064,0.04,0.148-0.008,0.17,0.061c0.021,0.066,0.14,0.13,0.2,0.155c0.061,0.023-0.004,0.017,0.05,0.107
	c0.055,0.091,0.102,0.013,0.205,0.122c0.103,0.106,0.37,0.166,0.418,0.329c0.047,0.162,0.059,0.175,0.033,0.265
	c-0.026,0.087-0.092,0.156-0.002,0.201c0.091,0.045,0.354,0.199,0.435,0.184c0.077-0.018,0.223-0.03,0.223-0.03
	c0.002,0,0.302,0.1,0.423,0.125c0.121,0.028,0.077,0.042,0.205,0.033c0.126-0.006,0.305,0.059,0.325-0.02
	c0.018-0.077,0.08-0.168,0.159-0.168c0.08-0.001,0.279,0.17,0.323,0.19c0.009,0.002,0.029,0.009,0.054,0.019
	c0.054,0.018,0.135,0.042,0.216,0.055c0.065,0.011,0.128,0.013,0.177-0.001c0.136-0.041,0.089,0.013,0.227-0.028
	c0.034-0.011,0.055-0.008,0.069,0c0.009,0.004,0.014,0.012,0.02,0.021c0.017,0.036,0.015,0.096,0.068,0.118
	c0.088,0.038,0.209,0.099,0.242,0.107c0.004,0,0.009,0.004,0.011,0.011C5.821,22.846,5.857,22.838,5.833,22.819z"/>
<path fill="#8EC549" d="M37.31,18.453c-0.454-4.099-2.281-7.784-5.011-10.585c-0.063,0.036-0.118,0.13-0.118,0.13
	c-0.102-0.02-0.204-0.038-0.307-0.057c-0.024,0.033-0.049,0.065-0.073,0.095c-0.078,0.005-0.155,0.008-0.233,0.012
	c0,0,0.076-0.063,0.081-0.161c0.005-0.098-0.156-0.051-0.195-0.037C31.414,7.867,31.31,7.93,31.31,7.93s-0.136,0.012-0.215,0.06
	c-0.077,0.047-0.199,0.206-0.199,0.206c-0.014,0.046-0.027,0.095-0.041,0.143c0,0-0.273,0.024-0.348-0.042
	c-0.077-0.067-0.172-0.18,0.023-0.175c0.193,0.006-0.049-0.194-0.216-0.199c-0.167-0.004-0.207-0.004-0.16,0.188
	c0.05,0.194,0.222,0.278,0.232,0.373c0.01,0.096-0.065,0.031-0.065,0.031s-0.079-0.098-0.174-0.102
	c-0.097-0.002-0.347,0.133-0.379,0.209c-0.034,0.078,0.175,0.21,0.109,0.238c-0.067,0.028-0.306-0.01-0.427-0.108
	c-0.121-0.098-0.3,0.037-0.067,0.153c0.235,0.118,0.166,0.253,0.059,0.156C29.335,8.966,29.245,8.9,29.19,8.898
	c-0.056-0.001-0.169-0.021-0.169-0.021s0.034-0.061-0.062-0.174C28.864,8.59,28.909,8.5,28.909,8.5s-0.157-0.038-0.28-0.135
	c-0.123-0.099,0.037-0.047,0.091-0.044c0.057,0.002,0.323,0.136,0.561,0.16c0.24,0.024,0.568-0.028,0.55-0.17
	c-0.016-0.145-0.142-0.292-0.311-0.313c-0.17-0.021-0.267-0.024-0.395-0.156c-0.125-0.132-0.34-0.171-0.536-0.176
	c-0.196-0.007-0.243-0.039-0.304-0.088c-0.062-0.05-0.318,0.038-0.318,0.038s-0.131-0.148-0.074-0.147
	c0.056,0.003,0.056,0.003,0.056,0.003s-0.072-0.02-0.135-0.069c-0.063-0.049-0.221-0.087-0.221-0.087
	c-0.006,0.026-0.013,0.054-0.018,0.081c-0.013-0.06-0.024-0.119-0.037-0.178c-0.043,0.031-0.087,0.062-0.13,0.093
	c-0.037,0.046-0.073,0.093-0.11,0.14c-0.002-0.054-0.003-0.106-0.006-0.16c-0.045,0.047-0.092,0.093-0.138,0.14
	c0.011-0.068,0.022-0.139,0.031-0.208c0,0-0.075-0.034-0.196,0.011c-0.123,0.044-0.169,0.122-0.164,0.169
	c0.006,0.048-0.085-0.002-0.126-0.004c-0.044-0.001-0.167,0.026-0.167,0.026s-0.012,0.032-0.125,0.028
	c-0.115-0.003-0.196-0.085-0.187-0.006c0.011,0.08-0.129,0.104-0.17,0.119C26.01,7.579,26,7.752,26,7.752s-0.208,0.039-0.255,0.006
	c-0.045-0.034-0.096,0.043-0.097,0.15c-0.002,0.108-0.086,0.119-0.128,0.133c-0.041,0.015-0.155,0.146-0.155,0.146
	c-0.014,0.056-0.026,0.111-0.039,0.166c0,0-0.025,0.167-0.081,0.178c-0.057,0.014-0.154,0.174-0.228,0.171
	c-0.073-0.004-0.098,0.174-0.155,0.17c-0.059-0.002-0.087-0.004-0.132-0.005c-0.044-0.002-0.264-0.014-0.264-0.014
	c0,0.001-0.01,0.194-0.051,0.219c-0.041,0.027-0.071,0.026-0.17,0.065c-0.101,0.039-0.174,0.035-0.17,0.079
	c0.005,0.044,0.074,0.136,0.074,0.136c0.094,0.01,0.189,0.021,0.281,0.031c-0.116,0.003-0.233,0.006-0.352,0.01
	c0.018,0.083,0.036,0.167,0.053,0.251c0.077-0.029,0.153-0.059,0.228-0.089c-0.055,0.08-0.111,0.16-0.169,0.239
	c0.046,0.07,0.093,0.14,0.14,0.212c0,0-0.005,0.116,0.275,0.088c0.278-0.026,0.309-0.141,0.367-0.152
	c0.059-0.012,0.134-0.256,0.161-0.137c0.023,0.105,0.027,0.117,0.13,0.125c0.013,0,0.028,0,0.044,0.002
	c0.147,0.009-0.182,0.078-0.013,0.161c0.167,0.082,0.124,0.081,0.218,0.289c0.093,0.207,0.053,0.235,0.057,0.292
	c0.006,0.058,0.073,0.148,0.161,0.154c0.088,0.004,0.13-0.021,0.138-0.079c0.008-0.057,0.125-0.051,0.228-0.044
	c0.102,0.005,0.199-0.017,0.166-0.208c-0.033-0.191-0.007-0.365-0.007-0.365s0.375-0.111,0.314-0.277
	c-0.061-0.168-0.299-0.121-0.376-0.437c-0.078-0.316,0.207-0.334,0.364-0.447c0.159-0.113,0.26-0.215,0.26-0.215
	s-0.163-0.054-0.083-0.111c0.079-0.058,0.083-0.135,0.155-0.131c0.072,0.002,0.209-0.038,0.25-0.036c0.011,0,0.038,0,0.069,0.006
	c0.1,0.011,0.261,0.042,0.226,0.097c-0.048,0.076-0.012,0.14-0.056,0.138c-0.042-0.001-0.349,0.275-0.349,0.274
	c0,0-0.218,0.083-0.156,0.264c0.064,0.184,0.13,0.396,0.13,0.396s0.006,0.06,0.094,0.08c0.086,0.019,0.153,0.112,0.224,0.114
	c0.071,0.003,0.213,0.011,0.256,0.013c0.042,0.001,0.181-0.022,0.223-0.02c0.042,0.002,0.102,0.02,0.14,0.007
	c0.042-0.014,0.102-0.099,0.102-0.099c0.018,0,0.037,0,0.055,0.001c0.034,0.003,0.067,0.004,0.101,0.005
	c0.053,0.018,0.105,0.035,0.158,0.052c-0.052,0.034-0.104,0.065-0.156,0.098c-0.027,0.019-0.053,0.037-0.079,0.055
	c-0.173-0.001-0.346-0.005-0.52-0.008c0,0-0.365,0.159-0.124,0.303c0.044,0.026,0.08,0.055,0.109,0.081
	c0.129,0.123,0.116,0.241,0.024,0.249c-0.112,0.009-0.148-0.082-0.148-0.082s-0.152-0.226-0.33-0.163
	c-0.178,0.065-0.162,0.08-0.048,0.231c0.116,0.153,0.012,0.103,0.06,0.164c0.049,0.061-0.045,0.114,0.033,0.175
	c0.034,0.028-0.013,0.051-0.065,0.072c-0.065,0.027-0.136,0.052-0.062,0.079c0.133,0.051-0.295,0.042-0.295,0.042
	c-0.042-0.042-0.085-0.081-0.127-0.123c0,0-0.211,0.045-0.322,0.083c-0.113,0.036-0.339,0.095-0.339,0.095
	c-0.019-0.007-0.035-0.012-0.054-0.017c-0.037-0.013-0.074-0.024-0.112-0.038c0.001,0.001-0.156-0.122-0.197-0.082
	c-0.04,0.039-0.155,0.062-0.214,0.057c-0.058-0.003-0.15-0.039-0.198-0.083c-0.05-0.046-0.162,0.005-0.145-0.138
	c0.015-0.142,0.032-0.113,0.145-0.179c0.11-0.064,0.14-0.063,0.09-0.125c-0.049-0.06-0.176,0.004-0.14-0.094
	c0.034-0.098,0.113-0.196,0.039-0.2c-0.075-0.004-0.146,0.006-0.2,0.06c-0.054,0.056-0.108,0.095-0.108,0.095
	s-0.177,0.004-0.171,0.062c0.005,0.059-0.001,0.144,0.019,0.202c0.021,0.06,0.185,0.241,0.185,0.241
	c0,0.001-0.027,0.187-0.087,0.182c-0.057-0.003,0.022,0.014-0.247,0.084c-0.013,0.002-0.027,0.007-0.042,0.011
	c-0.323,0.079-0.35-0.051-0.441,0.128c-0.092,0.179,0.001,0.213-0.222,0.242c-0.011,0.001-0.021,0.002-0.029,0.003
	c-0.191,0.029-0.121,0.073-0.162,0.111c-0.026,0.023-0.107,0.034-0.167,0.052c0.015-0.014,0.008-0.033-0.037-0.058
	c-0.144-0.085-0.228,0.037-0.144-0.085c0.082-0.12,0.134-0.075,0.17-0.18c0.039-0.102,0.085-0.111-0.01-0.149
	c-0.094-0.037-0.202,0.084-0.287,0.013c-0.085-0.07,0.033-0.029-0.024-0.172c-0.055-0.143,0.012-0.16-0.112-0.254
	c-0.121-0.093-0.175-0.042-0.175-0.042c0.001,0,0.088-0.208-0.124-0.289c-0.213-0.078-0.303-0.031-0.303-0.031
	s0.01-0.02,0.202-0.092c0.19-0.074,0.19-0.225,0.19-0.225s-0.225-0.069-0.315-0.076c-0.094-0.005-0.168,0.086-0.182,0.052
	c-0.014-0.033,0.015-0.115,0.092-0.154c0.078-0.039,0.155-0.098,0.155-0.098c-0.128-0.019-0.256-0.038-0.383-0.058
	c0,0-0.073,0.125-0.172,0.204c-0.1,0.08-0.119,0.132-0.114,0.208c0.005,0.076,0.194,0.11,0.194,0.11s-0.146,0.106-0.087,0.112
	c0.061,0.002,0.281-0.002,0.212,0.014c-0.07,0.017-0.172,0.063-0.172,0.063c0.048,0.003,0.094,0.007,0.141,0.01
	c0,0-0.191,0.127-0.144,0.128c0.046,0.004,0.268-0.023,0.268-0.023s0.101-0.046,0.11,0.072c0.006,0.118,0.095,0.221,0.095,0.221
	s0.178,0.043-0.027,0.125c-0.205,0.082-0.193,0.083-0.252,0.079c-0.059-0.004,0.151,0.15,0.082,0.176
	c-0.069,0.028-0.249-0.027-0.259,0.014c-0.009,0.042,0.09,0.112,0.16,0.117c0.071,0.006,0.233,0.144,0.34-0.018
	c0,0-0.06,0.164-0.214,0.143c-0.155-0.021-0.305,0.032-0.319,0.221c0,0,0.105-0.045,0.308-0.031c0.202,0.014,0.175-0.02,0.294-0.011
	c0.118,0.006,0.129-0.003,0.258,0.006c0.129,0.01,0.256,0.008,0.348,0.003c0.047-0.003,0.134-0.008,0.191-0.021
	c-0.014,0.009-0.024,0.021-0.023,0.036c0.005,0.071-0.002,0.184-0.08,0.177c-0.078-0.005-0.101,0.106-0.101,0.106
	s-0.183,0.057-0.3-0.048c-0.115-0.105-0.13-0.078-0.091,0.036c0.039,0.116,0.086,0.147-0.023,0.14
	c-0.109-0.008-0.22-0.001-0.22-0.001s-0.241-0.059-0.319-0.051c-0.078,0.01-0.072,0.165-0.067,0.22
	c0.001,0.057,0.108-0.075,0.29,0.077c0.183,0.151,0.315,0.272,0.333,0.315c0.019,0.043,0.056,0.144,0.063,0.256
	c0.007,0.11,0.071,0.406-0.026,0.4c-0.033-0.002-0.073,0.004-0.112,0.011c-0.074,0.017-0.139,0.042-0.139,0.042
	c-0.388-0.066-0.78-0.134-1.178-0.201c0.001,0-0.511,0.049-0.321,0.286c0,0,0.007,0.025,0.015,0.072
	c0.011,0.063,0.026,0.164,0.03,0.292c0.007,0.223-0.142,0.282-0.19,0.349c-0.049,0.068-0.113,0.204-0.027,0.208
	c0.083,0.005,0.11,0.355,0.11,0.354c0,0-0.033,0.04,0.169,0.052c0.179,0.009,0.148,0.04,0.185,0.021
	c0.005-0.002,0.01-0.006,0.018-0.01c0.067-0.039,0.231-0.057,0.288,0.098c0.055,0.156,0.072,0.183,0.172,0.176
	c0.098-0.009,0.027-0.15,0.192-0.141c0.164,0.008,0.198-0.031,0.377-0.022c0.179,0.011,0.292,0.014,0.292,0.014
	s0.107-0.157,0.188-0.139c0.082,0.018,0.086-0.243,0.198-0.235c0.112,0.005-0.091-0.267,0.079-0.38
	c0.167-0.115,0.193-0.25,0.32-0.242c0.125,0.007,0.247-0.042,0.247-0.042c0.026-0.095,0.052-0.189,0.077-0.285
	c0,0-0.057-0.195,0.145-0.183c0.201,0.012,0.411,0.162,0.545,0.143c0.136-0.019,0.178-0.1,0.233-0.165
	c0.009-0.011,0.015-0.023,0.019-0.036c0.019-0.063-0.002-0.133,0.215-0.073c0.262,0.07,0.351,0.075,0.363,0.24
	c0.012,0.165-0.007,0.109,0.166,0.241c0.174,0.133,0.299,0.249,0.437,0.297c0.136,0.048,0.265-0.013,0.428,0.239
	c0.162,0.25,0.342,0.326,0.212,0.346c-0.131,0.021,0.038,0.124-0.199,0.112c-0.234-0.011-0.233,0.014-0.381,0.008
	c-0.149-0.007-0.205,0.059-0.158,0.113c0.049,0.056,0.533,0.254,0.533,0.254c0.029-0.08,0.06-0.159,0.088-0.238
	c0,0,0.161-0.004,0.214-0.096c0.053-0.091,0.091-0.17,0.178-0.167c0.087,0.005-0.099-0.191-0.161-0.236
	c-0.061-0.042,0.06-0.198,0.217-0.015c0.157,0.183,0.322,0.056,0.034-0.146c-0.289-0.204-0.39-0.182-0.436-0.212
	c-0.047-0.029-0.067-0.126-0.067-0.126c-0.075-0.027-0.151-0.053-0.226-0.08c-0.028-0.051-0.056-0.102-0.083-0.155
	c0,0-0.021-0.068-0.175-0.173c-0.156-0.104-0.234-0.176-0.234-0.176s-0.093-0.254,0.04-0.247c0.095,0.005,0.104-0.048,0.145-0.03
	c0.019,0.007,0.041,0.029,0.081,0.071c0.127,0.144,0.205,0.202,0.252,0.233c0.046,0.03,0.115,0.171,0.235,0.218
	c0.12,0.047,0.154,0.118,0.214,0.134c0.059,0.017,0.175,0.023,0.175,0.023c0.008,0.005,0.014,0.011,0.02,0.014
	c0.096,0.073,0.191,0.146,0.286,0.218c0,0,0.004,0.271,0.036,0.312c0.032,0.042,0.105,0.273,0.189,0.265
	c0.016-0.003,0.028-0.002,0.039,0c0.048,0.007,0.056,0.045,0.083,0.113c0.034,0.08,0.059,0.228,0.059,0.228
	c0.035,0.051,0.072,0.102,0.108,0.15c0,0,0.104,0.071,0.163,0.086c0.057,0.017,0.229,0.038,0.229,0.038
	c-0.008-0.045-0.015-0.089-0.023-0.134c0.023-0.004,0.047-0.007,0.07-0.01c-0.041-0.046-0.081-0.091-0.121-0.137
	c0.063,0.03,0.126,0.059,0.188,0.086c0.027-0.023,0.053-0.05,0.08-0.076c-0.075-0.078-0.151-0.158-0.227-0.236
	c-0.042-0.063-0.083-0.128-0.125-0.192c0,0-0.04-0.163,0.037-0.064c0.077,0.097,0.089,0.058,0.154-0.02
	c0.065-0.078-0.074-0.057,0.065-0.078c0.125-0.018,0.169-0.072,0.221-0.032c0.005,0.005,0.011,0.011,0.017,0.017
	c0.05,0.061,0.184,0.103,0.22,0.113c0.005-0.003,0.011,0.004,0.011,0.004s-0.005,0-0.011-0.004
	c-0.008,0.006-0.015,0.034-0.008,0.136c0.011,0.173,0.044,0.256,0.076,0.323c0.032,0.067,0.097,0.188,0.166,0.191
	c0.07,0.003,0.125,0.019,0.158,0.086c0.03,0.066,0.093,0.188,0.093,0.187c0.088,0.013,0.176,0.025,0.264,0.036
	c0,0,0.085,0.057,0.124,0.019c0.039-0.037,0.09-0.102,0.09-0.102s0.104-0.073,0.232,0.034c0.128,0.109,0.115,0.122,0.277,0.114
	c0.161-0.006,0.083-0.165,0.181-0.136c0.095,0.03,0.23,0.034,0.295,0.037c0.038,0.001,0.06,0.006,0.07,0.024
	c0.011,0.014,0.014,0.036,0.015,0.069c0.005,0.079,0.034,0.364,0.024,0.428c-0.01,0.057-0.009,0.118-0.058,0.165
	c-0.005,0.004-0.009,0.009-0.014,0.013c-0.064,0.05-0.143,0.072-0.138,0.175c0.004,0.103,0.021,0.166,0.025,0.256
	c0.001,0.058,0.016,0.279,0.061,0.481c0.024,0.11,0.057,0.215,0.102,0.283c0.126,0.192,0.069,0.079,0.277,0.335
	c0.204,0.252,0.128,0.364,0.263,0.489c0.134,0.126,0.236,0.055,0.321,0.352c0,0-0.045,0.382,0.124,0.508
	c0.171,0.125,0.235,0.076,0.34,0.31c0.106,0.233,0.233,0.259,0.324,0.356c0.037,0.042,0.057,0.07,0.067,0.097
	c0.014,0.037,0.01,0.072,0.01,0.138c0.001,0.108-0.025,0.193,0,0.353c0.025,0.159,0.025,0.219,0.089,0.292
	c0.064,0.074,0.05,0.134,0.24,0.074c0.192-0.063,0.04-0.134,0.254-0.135c0.215,0,0.479-0.099,0.479-0.099s0.013-0.17,0.174-0.17
	c0.163,0,0.175-0.085,0.299-0.145c0.124-0.061,0.21-0.061,0.224-0.145c0.012-0.084,0.073-0.182,0.11-0.182c0.004,0,0.008,0,0.011,0
	c0.03,0,0.049,0,0.137,0.001c0.098,0,0.185,0,0.246-0.014c0.061-0.011-0.124-0.181,0.036-0.18c0.159,0,0.208,0.024,0.221-0.083
	c0.011-0.109,0.17-0.157,0.17-0.157s-0.001-0.097-0.001-0.133c0-0.034-0.074-0.181,0.036-0.18c0.109,0,0.048,0,0.194-0.119
	c0.146-0.12,0.133-0.266,0.095-0.326c-0.038-0.062-0.038-0.047-0.086-0.098c-0.05-0.048-0.112-0.158-0.148-0.159
	c-0.038,0-0.146,0.011-0.209-0.038c-0.062-0.049-0.147-0.099-0.187-0.171c-0.008-0.017-0.015-0.041-0.021-0.067
	c-0.022-0.09-0.032-0.216-0.032-0.216s-0.253,0.328-0.351,0.376c-0.099,0.048-0.347,0.01-0.409,0.046
	c-0.009,0.003-0.024,0.003-0.04-0.003c-0.088-0.031-0.252-0.209-0.329-0.345c-0.092-0.162,0.022-0.147-0.12-0.285
	c-0.099-0.097-0.218-0.238-0.282-0.344c-0.026-0.044-0.044-0.082-0.044-0.108c-0.003-0.088,0.214-0.396,0.322-0.206
	c0.106,0.188,0.225,0.414,0.477,0.503c0,0,0.118,0.199,0.304,0.239c0.188,0.039,0.406-0.179,0.48-0.105
	c0.076,0.074,0.066,0.296,0.301,0.333c0.233,0.039,0.418,0.125,0.539,0.127c0.045,0,0.085-0.004,0.137-0.01
	c0.09-0.008,0.21-0.021,0.435-0.011c0.352,0.014,0.374-0.106,0.448,0.027c0.073,0.133,0.038,0.243,0.254,0.243
	c0.031,0,0.054,0.007,0.073,0.015C37.082,18.332,37.044,18.486,37.31,18.453z M27.783,11.889c0.009,0.013,0.016,0.023,0.021,0.031
	c0,0.003,0.002,0.005,0.004,0.008C27.801,11.917,27.793,11.906,27.783,11.889z M28.386,10.773c-0.003-0.003-0.004-0.006-0.007-0.009
	C28.382,10.768,28.384,10.771,28.386,10.773C28.386,10.774,28.386,10.774,28.386,10.773z M34.142,19.268
	c0,0-0.006,0.006-0.016,0.012c0,0,0,0-0.002,0C34.133,19.275,34.142,19.268,34.142,19.268z M36.336,15.383
	c0.023,0,0.045-0.004,0.069-0.005c0.002,0,0.003,0,0.008,0C36.387,15.379,36.36,15.382,36.336,15.383z"/>
<path fill="#8EC549" d="M25.109,14.058c0.114,0.006,0.13-0.075,0.125-0.167c-0.005-0.093-0.19-0.155-0.208-0.083
	C25.025,13.807,24.995,14.053,25.109,14.058z"/>
<path fill="#8EC549" d="M1.807,21.642c-0.107-0.026-0.123-0.201-0.184-0.338c-0.062-0.139-0.178-0.132-0.231-0.249
	c-0.023-0.046-0.041-0.084-0.062-0.118c0.004,0.126,0.011,0.252,0.021,0.38c0.018,0.005,0.036,0.016,0.051,0.04
	c0.053,0.084,0.053,0.084,0.067,0.13c0.013,0.044,0.032,0.163,0.032,0.163c0.099,0.042,0.196,0.085,0.292,0.128
	c0,0,0.167,0.229,0.178,0.086C1.984,21.722,1.916,21.669,1.807,21.642z"/>
<path fill="#8EC549" d="M7.085,9.824c-0.072,0.047,0.019,0.247,0.055,0.231c0.038-0.014,0.149-0.06,0.262-0.105
	c0.112-0.047,0.224-0.092,0.35-0.145c0.126-0.053,0.229-0.078,0.318-0.117C8.16,9.653,8.229,9.573,8.416,9.461
	C8.603,9.347,8.59,9.182,8.59,9.182c0,0-0.325,0.121-0.364,0.135c-0.038,0.017-0.363,0.205-0.738,0.36
	C7.111,9.831,7.576,9.487,7.576,9.485c0,0,0.412-0.205,0.451-0.223c0.038-0.015,0.289-0.155,0.289-0.156
	c0.157-0.059,0.313-0.12,0.47-0.181c-0.001,0,0.169-0.072,0.123-0.105C8.862,8.79,8.806,8.692,8.938,8.636
	C9.068,8.581,9.196,8.49,9.196,8.49c0.013-0.036,0.026-0.07,0.041-0.107C9.236,8.386,9.644,8.16,9.682,8.125
	C9.719,8.091,9.52,8.193,9.453,8.221C9.386,8.25,9.475,7.983,9.552,7.913c0.075-0.068,0.527-0.224,0.651-0.275
	c0.123-0.052,0.218-0.093,0.313-0.15c0.094-0.058,0.179-0.292,0.291-0.338c0.111-0.046,0.312-0.203,0.42-0.267
	c0.109-0.063,0.396-0.253,0.396-0.253c0.087-0.054,0.175-0.107,0.263-0.161c0,0-0.161-0.097-0.36-0.034
	c-0.199,0.064-0.238,0.1-0.392,0.163c-0.153,0.063-0.196,0.082-0.39,0.161c-0.195,0.083-0.292,0.122-0.512,0.215
	c-0.22,0.093-0.179,0.076-0.52,0.219c-0.34,0.144-0.311,0.149-0.648,0.384C8.728,7.811,8.576,7.821,8.431,7.882
	C8.285,7.945,8.239,8.091,8.239,8.091c0.007,0.052,0.015,0.103,0.024,0.153c0.014,0.036,0.03,0.072,0.044,0.107
	c0,0-0.104,0.045-0.151,0.011C8.109,8.327,7.989,8.36,7.989,8.36s-0.099,0.078-0.15,0.1C7.788,8.48,7.606,8.557,7.53,8.588
	C7.452,8.622,7.37,8.853,7.37,8.852c0.014,0.06,0.028,0.119,0.044,0.178c0,0.001,0.137,0.083,0.188,0.063
	C7.653,9.072,7.78,9.019,7.854,8.97C7.929,8.92,8.094,8.834,8.131,8.817C8.171,8.802,8.3,8.834,8.3,8.834s0,0.088-0.038,0.104
	C8.222,8.956,8.15,8.933,8.15,8.933S8.021,8.987,7.97,9.008C7.919,9.03,7.859,9.16,7.783,9.191C7.707,9.224,7.63,9.255,7.58,9.276
	C7.529,9.298,7.489,9.383,7.401,9.419C7.313,9.456,7.125,9.464,7.03,9.451C6.933,9.438,6.885,9.684,6.885,9.683
	c0.083-0.034,0.166-0.067,0.25-0.101C7.135,9.582,7.158,9.778,7.085,9.824z"/>
<path fill="#8EC549" d="M25.013,14.328c0.007,0.109,0.013,0.218,0.019,0.327c0.039,0.003,0.077,0.004,0.113,0.006
	c0.014-0.026,0.028-0.053,0.042-0.079c0.035-0.005,0.067-0.01,0.102-0.014c0,0,0.049-0.313,0.023-0.346c0,0-0.059-0.063-0.085-0.096
	c-0.025-0.032-0.101,0.004-0.101,0.004c-0.03,0.012-0.059,0.022-0.089,0.036c-0.029,0.016-0.058,0.03-0.088,0.046
	C24.97,14.251,24.991,14.29,25.013,14.328z"/>
<path fill="#8EC549" d="M3.712,12.387c0.016,0.041,0.03,0.083,0.045,0.125c0,0,0.09-0.042,0.317-0.112
	c0.229-0.072,0.419-0.257,0.466-0.319c0.047-0.062,0.056,0.028,0.257,0.037c0.203,0.01,0.15-0.051,0.346-0.118
	c0.196-0.069-0.016-0.119,0.019-0.131c0.034-0.011,0.22-0.077,0.3-0.17c0.08-0.091-0.319,0.037-0.318-0.171
	c0.001-0.208,0.202-0.557,0.202-0.559c0.049-0.016,0.058-0.087,0.058-0.087c-0.087,0.032-0.173,0.064-0.26,0.095
	c0.013,0.072,0.024,0.145,0.037,0.215c0,0-0.056-0.077-0.157-0.072c-0.103,0.003-0.246,0.199-0.206,0.361
	c0.001,0.006,0.001,0.01,0.002,0.013c-0.017-0.044-0.055-0.11-0.102-0.058c-0.053,0.056,0.005-0.132-0.027-0.055
	c-0.032,0.074-0.157,0.085-0.265,0.057c-0.108-0.027-0.104,0.037-0.26,0.071c-0.155,0.035-0.183,0.075-0.333,0.123
	c-0.152,0.048-0.184,0.074-0.225,0.197c-0.043,0.124,0.171,0.121,0.055,0.157C3.548,12.02,3.467,12.09,3.518,12.09
	c0.052,0.002,0.571-0.065,0.571-0.067c0,0-0.149,0.048-0.323,0.101c-0.174,0.055-0.371,0.111-0.354,0.26
	C3.429,12.534,3.712,12.387,3.712,12.387z"/>
<path fill="#8EC549" d="M21.236,11.427c0.147,0.053,0.145,0,0.287-0.042c0.142-0.043,0.129-0.043,0.331-0.062
	c0.201-0.018,0.055-0.304,0.098-0.344c0,0,0.099,0.059-0.025-0.044c-0.125-0.105-0.196-0.131,0.087-0.11
	c0.283,0.019,0.004-0.119-0.069-0.167c-0.073-0.046-0.106-0.018-0.297-0.031c-0.189-0.013-0.108,0.185-0.108,0.185
	s-0.069,0.039-0.205-0.047c-0.135-0.084-0.168-0.022-0.184,0.147c-0.015,0.169,0.042,0.109,0.149,0.117
	c0.109,0.007-0.008,0.074-0.104,0.088c-0.095,0.015-0.151,0.106-0.148,0.18S21.089,11.375,21.236,11.427z"/>
<path fill="#8EC549" d="M24.931,5.681c0.128,0.001,0.174-0.133,0.292-0.133c0.116,0.001,0.006,0.137,0.006,0.137
	c-0.322,0.069-0.336,0.043-0.089,0.218c0.246,0.174,0.191,0.002,0.351,0.079c0.158,0.074,0.075,0.001,0.176-0.206
	c0.1-0.209,0.053-0.16,0.231-0.183c0.178-0.024,0.158,0.15,0.237,0.187c0,0,0.18,0.078,0.351,0.079
	c0.17,0.003,0.204-0.071,0.129-0.072c-0.075,0-0.214-0.003-0.361-0.155c-0.147-0.149-0.55-0.228-0.55-0.228s0.117,0.001,0.172,0.027
	c0.057,0.023,0.294,0.051,0.444,0.052c0.148,0,0.179-0.011,0.371-0.085c0.191-0.074,0.083-0.176,0.083-0.176
	s-0.329-0.002-0.489-0.002c-0.159,0-0.297,0-0.5-0.001c-0.203,0-0.257,0.061-0.556,0.061c-0.298-0.003-0.34-0.003-0.49-0.004
	c-0.148,0-0.146,0.11-0.126,0.258C24.631,5.677,24.801,5.68,24.931,5.681z"/>
<g>
	<g>
		<polygon fill="#2E2E2E" points="48.042,31.864 37.659,31.864 36.737,33.376 7.822,33.376 6.966,31.864 0,31.864 1.248,36.335 
			4.207,36.794 44.231,36.465 		"/>
		<path fill="#EF3B24" d="M4.207,36.794c0,0,0.279,1.594,1.559,1.594h38.466c0,0,1.248-0.674,0-1.923L4.207,36.794z"/>
	</g>
</g>
<polygon fill="#2E2E2E" stroke="#FFFFFF" stroke-width="0.5" stroke-miterlimit="10" points="7.294,24.768 2.365,24.768 
	2.365,32.458 6.045,32.458 7.294,29.367 5.652,27.922 6.638,27.922 "/>
<circle fill="#FFD76F" cx="4.206" cy="26.41" r="0.788"/>
<rect x="8.478" y="27.199" fill="#FCEE22" stroke="#FFFFFF" stroke-width="0.25" stroke-miterlimit="10" width="5.915" height="2.826"/>
<rect x="15.445" y="27.199" fill="#FCEE22" stroke="#FFFFFF" stroke-width="0.25" stroke-miterlimit="10" width="5.916" height="2.826"/>
<rect x="22.411" y="27.199" fill="#FCEE22" stroke="#FFFFFF" stroke-width="0.25" stroke-miterlimit="10" width="5.915" height="2.826"/>
<rect x="29.377" y="27.199" fill="#FCEE22" stroke="#F8A11C" stroke-width="0.25" stroke-miterlimit="10" width="5.915" height="2.826"/>
<rect x="36.344" y="27.199" fill="#FCEE22" stroke="#F8A11C" stroke-width="0.25" stroke-miterlimit="10" width="5.915" height="2.826"/>
<rect x="8.478" y="30.946" fill="#FCEE22" stroke="#FFFFFF" stroke-width="0.25" stroke-miterlimit="10" width="5.915" height="2.827"/>
<rect x="15.445" y="30.946" fill="#FCEE22" stroke="#FFFFFF" stroke-width="0.25" stroke-miterlimit="10" width="5.916" height="2.827"/>
<rect x="22.411" y="30.946" fill="#FCEE22" stroke="#FFFFFF" stroke-width="0.25" stroke-miterlimit="10" width="5.915" height="2.827"/>
<rect x="29.377" y="30.946" fill="#FCEE22" stroke="#F8A11C" stroke-width="0.25" stroke-miterlimit="10" width="5.915" height="2.827"/>
<rect x="36.344" y="30.946" fill="#FCEE22" stroke="#F8A11C" stroke-width="0.25" stroke-miterlimit="10" width="5.915" height="2.827"/>
<circle fill="#FFD76F" cx="42.522" cy="34.331" r="0.559"/>
<path fill="#7289C5" d="M37.284,0.25l3.936,3.937c0.333,0.332,0.333,0.875,0,1.207l-1.275,1.275c-0.333,0.333-0.875,0.333-1.208,0
	l-3.936-3.936c-0.333-0.334-0.333-0.875,0-1.208l1.275-1.275C36.408-0.083,36.951-0.083,37.284,0.25 M38.871,6.535
	c0.26,0.258,0.681,0.258,0.94,0l1.274-1.275c0.259-0.259,0.259-0.681,0-0.939l-3.936-3.937c-0.259-0.259-0.681-0.259-0.94,0
	l-1.275,1.275c-0.258,0.259-0.258,0.68,0,0.939L38.871,6.535z"/>
<rect x="34.132" y="3.7" transform="matrix(-0.7071 -0.7071 0.7071 -0.7071 61.6299 33.12)" fill="#7289C5" width="7.085" height="0.19"/>
<rect x="34.803" y="3.029" transform="matrix(-0.7072 -0.707 0.707 -0.7072 63.2547 32.4446)" fill="#7289C5" width="7.085" height="0.191"/>
<rect x="39.705" y="3.588" transform="matrix(-0.7084 -0.7058 0.7058 -0.7084 64.2892 37.058)" fill="#7289C5" width="0.19" height="3.321"/>
<rect x="38.81" y="2.694" transform="matrix(-0.7071 -0.7071 0.7071 -0.7071 63.3361 34.9432)" fill="#7289C5" width="0.191" height="3.321"/>
<rect x="37.916" y="1.798" transform="matrix(-0.7097 -0.7045 0.7045 -0.7097 62.548 32.6941)" fill="#7289C5" width="0.189" height="3.323"/>
<rect x="37.021" y="0.905" transform="matrix(-0.7058 -0.7084 0.7084 -0.7058 61.4951 30.6681)" fill="#7289C5" width="0.19" height="3.321"/>
<rect x="36.126" y="0.009" transform="matrix(-0.7045 -0.7097 0.7097 -0.7045 60.5546 28.5515)" fill="#7289C5" width="0.19" height="3.321"/>
<path fill="#7289C5" d="M45.424,8.391l3.937,3.936c0.333,0.333,0.333,0.875,0,1.208l-1.274,1.275c-0.333,0.333-0.875,0.333-1.208,0
	l-3.937-3.936c-0.333-0.333-0.333-0.875,0-1.208l1.275-1.275C44.549,8.058,45.091,8.058,45.424,8.391 M47.013,14.676
	c0.258,0.259,0.679,0.259,0.939,0l1.275-1.275c0.258-0.259,0.258-0.68,0-0.939L45.29,8.525c-0.259-0.259-0.681-0.259-0.94,0
	L43.076,9.8c-0.26,0.259-0.26,0.68,0,0.938L47.013,14.676z"/>
<rect x="42.273" y="11.84" transform="matrix(-0.7071 -0.7071 0.7071 -0.7071 69.7724 52.7722)" fill="#7289C5" width="7.086" height="0.191"/>
<rect x="42.945" y="11.17" transform="matrix(-0.7071 -0.7071 0.7071 -0.7071 71.3931 52.1013)" fill="#7289C5" width="7.085" height="0.19"/>
<rect x="47.845" y="11.728" transform="matrix(-0.7084 -0.7058 0.7058 -0.7084 72.4499 56.7116)" fill="#7289C5" width="0.19" height="3.323"/>
<rect x="46.951" y="10.834" transform="matrix(-0.7058 -0.7084 0.7084 -0.7058 71.4006 54.6406)" fill="#7289C5" width="0.19" height="3.321"/>
<rect x="46.056" y="9.939" transform="matrix(-0.7084 -0.7058 0.7058 -0.7084 70.6556 52.3916)" fill="#7289C5" width="0.19" height="3.322"/>
<rect x="45.161" y="9.045" transform="matrix(-0.7084 -0.7058 0.7058 -0.7084 69.7589 50.2314)" fill="#7289C5" width="0.191" height="3.321"/>
<rect x="44.266" y="8.15" transform="matrix(-0.7071 -0.7071 0.7071 -0.7071 68.793 48.1156)" fill="#7289C5" width="0.191" height="3.321"/>
<path fill="#575450" d="M44.284,5.327c-0.684-0.684-0.684-1.793,0-2.477c0.684-0.685,1.792-0.685,2.477,0
	c0.685,0.684,0.685,1.792,0,2.477C46.076,6.012,44.967,6.012,44.284,5.327"/>
<path fill="#3B3936" d="M44.284,2.851c-0.572,0.572-0.664,1.438-0.28,2.108l0.957,0.406c0,0-0.564-1.599,1.046-2.454l-0.502-0.574
	C45.062,2.342,44.621,2.512,44.284,2.851"/>
<path fill="#FBEE33" d="M38.338,11.108l-0.931,0.93c-0.179-0.105-0.412-0.082-0.565,0.071c-0.183,0.182-0.183,0.477,0,0.659
	c0.182,0.184,0.478,0.184,0.659,0c0.153-0.152,0.175-0.386,0.071-0.564l0.931-0.931L38.338,11.108z"/>
<path fill="#68655E" d="M42.386,10.221l2.476-2.477l0.28-0.279c0.53-0.53,0.53-1.389,0-1.918l-1.079-1.079
	c-0.529-0.529-1.388-0.529-1.918,0l-0.279,0.281L39.39,7.225l-1.389,1.389l2.995,2.996L42.386,10.221z"/>
<path fill="#4A4843" d="M42.145,4.468l-0.279,0.281L39.62,6.994l1.751,0.915l2.543-2.543c0,0,0.353-0.444,1.046,0l-0.896-0.897
	C43.535,3.938,42.675,3.938,42.145,4.468"/>
<path fill="#B0AFAD" d="M38.001,8.614l0.289,0.29c-1.498-0.497-2.766,0.297-2.766,0.297l2.443,2.443l2.442,2.444
	c0,0,0.794-1.27,0.297-2.768l0.289,0.29l2.038-2.037l-2.997-2.996L38.001,8.614z"/>
<path fill="#9B9995" d="M41.371,7.909l-1.333-1.332l-2.037,2.037l0.289,0.29c-1.498-0.497-2.766,0.297-2.766,0.297l1.089,1.088
	c0.329-0.22,1.455-0.871,2.666-0.397L41.371,7.909z"/>
<rect x="46.01" y="2.729" transform="matrix(-0.706 0.7082 -0.7082 -0.706 81.7882 -28.2659)" fill="#7289C5" width="1.503" height="0.231"/>
<polygon fill="#B0AFAD" points="45.221,2.359 45.791,1.787 47.814,3.82 47.244,4.394 "/>
<polygon fill="#8F8C88" points="45.851,2.994 46.445,2.443 45.791,1.787 45.221,2.359 "/>
</svg>
