<?xml version="1.0" encoding="utf-8"?>
<!-- Generator: Adobe Illustrator 14.0.0, SVG Export Plug-In  -->
<!DOCTYPE svg PUBLIC "-//W3C//DTD SVG 1.1//EN" "http://www.w3.org/Graphics/SVG/1.1/DTD/svg11.dtd" [
	<!ENTITY ns_flows "http://ns.adobe.com/Flows/1.0/">
]>
<svg version="1.1"
	 xmlns="http://www.w3.org/2000/svg" xmlns:xlink="http://www.w3.org/1999/xlink" xmlns:a="http://ns.adobe.com/AdobeSVGViewerExtensions/3.0/"
	 x="0px" y="0px" width="50px" height="39px" viewBox="-6.618 -0.966 50 39" enable-background="new -6.618 -0.966 50 39"
	 xml:space="preserve">
<defs>
</defs>
<circle fill="#2DAECB" stroke="#1291BD" stroke-miterlimit="10" cx="18.344" cy="18.344" r="12.26"/>
<circle opacity="0.23" cx="18.414" cy="17.612" r="5.357"/>
<circle fill="#FFFFFF" stroke="#1291BD" stroke-miterlimit="10" cx="18.345" cy="17.495" r="5.357"/>
<polygon fill="#0F91BD" points="6.793,22.509 0,20.783 0,15.353 6.793,14.319 "/>
<polygon fill="#2DAECB" points="7.451,21.675 1,20.318 1,16.049 7.451,15.236 "/>
<polygon fill="#0F91BD" points="29.896,14.18 36.688,15.905 36.688,21.336 29.896,22.369 "/>
<polygon fill="#2DAECB" points="29.237,15.014 35.688,16.37 35.688,20.64 29.237,21.452 "/>
<polygon fill="#0F91BD" points="22.509,29.896 20.783,36.688 15.353,36.688 14.319,29.896 "/>
<polygon fill="#2DAECB" points="21.675,29.237 20.318,35.688 16.049,35.688 15.236,29.237 "/>
<polygon fill="#0F91BD" points="14.18,6.793 15.905,0 21.336,0 22.369,6.793 "/>
<polygon fill="#2DAECB" points="15.014,7.451 16.37,1 20.64,1 21.452,7.451 "/>
<polygon fill="#0F91BD" points="29.457,23.567 33.04,29.591 29.2,33.431 23.666,29.358 "/>
<polygon fill="#2DAECB" points="28.401,23.692 32.004,29.212 28.985,32.231 23.849,28.244 "/>
<polygon fill="#0F91BD" points="7.231,13.121 3.648,7.098 7.488,3.257 13.022,7.33 "/>
<polygon fill="#2DAECB" points="8.286,12.997 4.684,7.476 7.703,4.457 12.839,8.444 "/>
<polygon fill="#0F91BD" points="13.121,29.457 7.098,33.04 3.257,29.2 7.33,23.666 "/>
<polygon fill="#2DAECB" points="12.997,28.402 7.476,32.004 4.457,28.985 8.444,23.849 "/>
<polygon fill="#0F91BD" points="23.567,7.231 29.591,3.648 33.431,7.488 29.358,13.022 "/>
<polygon fill="#2DAECB" points="23.692,8.287 29.212,4.684 32.231,7.703 28.245,12.839 "/>
</svg>
